<svg width="60" height="60" viewBox="0 0 60 60" fill="none" xmlns="http://www.w3.org/2000/svg">
<g id="heroicons-solid/code-bracket">
<path id="Vector (Stroke)" fill-rule="evenodd" clip-rule="evenodd" d="M36.1183 7.56605C37.1174 7.83852 37.7064 8.86928 37.4339 9.86833L26.1839 51.1183C25.9115 52.1174 24.8807 52.7064 23.8817 52.4339C22.8826 52.1614 22.2936 51.1307 22.5661 50.1316L33.8161 8.88164C34.0885 7.88259 35.1193 7.29358 36.1183 7.56605ZM41.7992 15.5492C42.5314 14.8169 43.7186 14.8169 44.4508 15.5492L57.5758 28.6742C58.3081 29.4064 58.3081 30.5936 57.5758 31.3258L44.4508 44.4508C43.7186 45.183 42.5314 45.183 41.7992 44.4508C41.0669 43.7186 41.0669 42.5314 41.7992 41.7992L53.5983 30L41.7992 18.2008C41.0669 17.4686 41.0669 16.2814 41.7992 15.5492ZM18.2008 15.5492C18.9331 16.2814 18.9331 17.4686 18.2008 18.2008L6.40165 30L18.2008 41.7992C18.9331 42.5314 18.9331 43.7186 18.2008 44.4508C17.4686 45.183 16.2814 45.183 15.5492 44.4508L2.42417 31.3258C1.69194 30.5936 1.69194 29.4064 2.42417 28.6742L15.5492 15.5492C16.2814 14.8169 17.4686 14.8169 18.2008 15.5492Z" fill="#E4E4E7"/>
</g>
</svg>
