<svg width="83" height="82" viewBox="0 0 83 82" fill="none" xmlns="http://www.w3.org/2000/svg">
<rect x="1" y="0.5" width="81" height="81" rx="40.5" stroke="url(#paint0_linear_0_1)"/>
<rect x="1" y="0.5" width="81" height="81" rx="40.5" stroke="url(#paint1_linear_0_1)"/>
<rect x="11" y="10.5" width="61" height="61" rx="30.5" stroke="url(#paint2_linear_0_1)"/>
<rect x="11" y="10.5" width="61" height="61" rx="30.5" stroke="url(#paint3_linear_0_1)"/>
<path fill-rule="evenodd" clip-rule="evenodd" d="M37.75 27.1875C38.3368 27.1875 38.8125 27.6632 38.8125 28.25V30.383C40.0653 30.4019 41.3102 30.4542 42.5463 30.539C43.8346 30.6274 45.1133 30.7511 46.3815 30.9093C46.9637 30.9819 47.3769 31.5128 47.3043 32.0951C47.2317 32.6774 46.7008 33.0905 46.1185 33.0179C45.1842 32.9014 44.2439 32.8042 43.2979 32.7266C42.461 35.9988 41.0168 39.0271 39.0929 41.6848C39.5417 42.2278 40.0136 42.751 40.5071 43.2531C40.9184 43.6717 40.9126 44.3444 40.494 44.7557C40.0755 45.167 39.4028 45.1611 38.9915 44.7426C38.5624 44.306 38.1483 43.8546 37.75 43.3893C35.5242 45.9895 32.805 48.1543 29.7376 49.7389C29.2163 50.0082 28.5753 49.8039 28.306 49.2825C28.0367 48.7612 28.241 48.1202 28.7623 47.8509C31.7115 46.3274 34.3105 44.2211 36.4071 41.6848C35.1801 39.9898 34.1482 38.144 33.3444 36.1801C33.1222 35.637 33.3822 35.0166 33.9253 34.7943C34.4684 34.5721 35.0888 34.8322 35.3111 35.3752C35.9661 36.9755 36.786 38.4912 37.75 39.9009C39.2586 37.6945 40.4147 35.2286 41.1375 32.5842C40.0155 32.5283 38.8861 32.5 37.75 32.5C34.9154 32.5 32.1225 32.6761 29.3815 33.0179C28.7992 33.0905 28.2683 32.6774 28.1956 32.0951C28.123 31.5128 28.5362 30.9819 29.1185 30.9093C31.6033 30.5994 34.1287 30.4216 36.6875 30.383V28.25C36.6875 27.6632 37.1632 27.1875 37.75 27.1875ZM47.3125 36.75C47.7253 36.75 48.1007 36.9891 48.2753 37.3632L55.7128 53.3007C55.961 53.8324 55.731 54.4647 55.1993 54.7128C54.6675 54.961 54.0353 54.7311 53.7872 54.1993L52.09 50.5625H42.535L40.8378 54.1993C40.5896 54.7311 39.9574 54.961 39.4257 54.7128C38.8939 54.4647 38.664 53.8324 38.9122 53.3007L46.3497 37.3632C46.5242 36.9891 46.8997 36.75 47.3125 36.75ZM43.5266 48.4375H51.0983L47.3125 40.325L43.5266 48.4375Z" fill="#2EC4FF"/>
<defs>
<linearGradient id="paint0_linear_0_1" x1="7.25" y1="86.5" x2="86.25" y2="-5.5" gradientUnits="userSpaceOnUse">
<stop stop-color="#2EC4FF"/>
<stop offset="0.323723" stop-color="#2EC4FF" stop-opacity="0"/>
</linearGradient>
<linearGradient id="paint1_linear_0_1" x1="82.25" y1="-10.5" x2="7.25" y2="82" gradientUnits="userSpaceOnUse">
<stop stop-color="#2EC4FF"/>
<stop offset="0.576615" stop-color="#2EC4FF" stop-opacity="0"/>
</linearGradient>
<linearGradient id="paint2_linear_0_1" x1="3.75" y1="13.5" x2="72.25" y2="72" gradientUnits="userSpaceOnUse">
<stop stop-color="#2EC4FF"/>
<stop offset="0.323723" stop-color="#2EC4FF" stop-opacity="0"/>
</linearGradient>
<linearGradient id="paint3_linear_0_1" x1="84.75" y1="86" x2="12.75" y2="35" gradientUnits="userSpaceOnUse">
<stop stop-color="#2EC4FF"/>
<stop offset="0.576615" stop-color="#2EC4FF" stop-opacity="0"/>
</linearGradient>
</defs>
</svg>
