<svg width="27" height="27" viewBox="0 0 27 27" fill="none" xmlns="http://www.w3.org/2000/svg">
<g id="Frame">
<path id="Vector" d="M24.0001 3H4.00012L5.76483 20.8947L14.0001 23L22.2354 20.8947L24.0001 3Z" fill="#E65100"/>
<path id="Vector_2" d="M13.5001 4.5V22.4438L19.8001 20.6438L21.2064 4.5H13.5001Z" fill="#FF6D00"/>
<path id="Vector_3" d="M13.5001 14.0625V11.8125H18.3376L17.9439 18.2812L13.5001 19.7437V17.3812L15.8064 16.5938L15.9751 14.0625H13.5001ZM18.5064 9.5625L18.6751 7.3125H13.5001V9.5625H18.5064Z" fill="white"/>
<path id="Vector_4" d="M13.5001 17.3812V19.7437L9.05635 18.2812L8.83135 15.1875H11.0813L11.1938 16.5938L13.5001 17.3812ZM10.7438 9.5625H13.5001V7.3125H8.38135L8.7751 14.0625H13.5001V11.8125H10.9126L10.7438 9.5625Z" fill="#EEEEEE"/>
</g>
</svg>
