<svg width="60" height="60" viewBox="0 0 60 60" fill="none" xmlns="http://www.w3.org/2000/svg">
<g id="heroicons-solid/language">
<path id="Vector (Stroke)" fill-rule="evenodd" clip-rule="evenodd" d="M22.5 5.625C23.5356 5.625 24.375 6.46447 24.375 7.5V11.2641C26.586 11.2975 28.7828 11.3897 30.9641 11.5394C33.2376 11.6954 35.4942 11.9138 37.732 12.1928C38.7596 12.321 39.4888 13.2578 39.3606 14.2854C39.2325 15.313 38.2956 16.0421 37.268 15.914C35.6192 15.7084 33.9598 15.5368 32.2905 15.3998C30.8135 21.1743 28.2651 26.5184 24.8699 31.2084C25.662 32.1666 26.4947 33.0901 27.3655 33.9761C28.0914 34.7147 28.081 35.9018 27.3425 36.6277C26.6039 37.3535 25.4168 37.3432 24.6909 36.6046C23.9337 35.8342 23.2029 35.0376 22.5 34.2164C18.5722 38.805 13.7735 42.6252 8.3606 45.4215C7.44057 45.8968 6.30946 45.5363 5.83418 44.6163C5.3589 43.6962 5.71943 42.5651 6.63945 42.0898C11.8439 39.4012 16.4303 35.6842 20.1302 31.2084C17.965 28.2174 16.1439 24.96 14.7255 21.4943C14.3333 20.536 14.7923 19.4411 15.7506 19.0488C16.709 18.6566 17.8039 19.1156 18.1961 20.0739C19.3519 22.898 20.7989 25.5726 22.5 28.0604C25.1622 24.1668 27.2025 19.8151 28.4781 15.1486C26.498 15.0499 24.5049 15 22.5 15C17.4979 15 12.5692 15.3108 7.73204 15.914C6.70446 16.0421 5.76757 15.313 5.63943 14.2854C5.5113 13.2578 6.24044 12.321 7.26801 12.1928C11.6529 11.646 16.1095 11.3323 20.625 11.2641V7.5C20.625 6.46447 21.4645 5.625 22.5 5.625ZM39.375 22.5C40.1035 22.5 40.7661 22.922 41.0741 23.5821L54.1991 51.7071C54.637 52.6455 54.2313 53.7612 53.2929 54.1991C52.3546 54.637 51.2388 54.2313 50.8009 53.2929L47.8059 46.875H30.9441L27.9491 53.2929C27.5112 54.2313 26.3955 54.637 25.4571 54.1991C24.5187 53.7612 24.113 52.6455 24.5509 51.7071L37.6759 23.5821C37.984 22.922 38.6465 22.5 39.375 22.5ZM32.6941 43.125H46.0559L39.375 28.8088L32.6941 43.125Z" fill="#E4E4E7"/>
</g>
</svg>
