<svg width="60" height="60" viewBox="0 0 60 60" fill="none" xmlns="http://www.w3.org/2000/svg">
<g id="heroicons-solid/light-bulb">
<g id="Vector">
<path d="M30 1.875C18.6091 1.875 9.375 11.1091 9.375 22.5C9.375 30.1269 13.5158 36.7845 19.6629 40.3511C21.3765 41.3454 22.4496 42.871 22.4982 44.4064C22.525 45.2533 23.1164 45.977 23.941 46.1718C24.8195 46.3795 25.7146 46.5429 26.624 46.6597C27.433 46.7637 28.1255 46.1156 28.1255 45.2999V33.6474C27.3273 33.5591 26.5451 33.415 25.7831 33.2189C24.7802 32.9607 24.1765 31.9385 24.4346 30.9357C24.6927 29.9328 25.715 29.3291 26.7178 29.5872C27.7648 29.8567 28.8644 30.0005 30.0005 30.0005C31.1365 30.0005 32.2361 29.8567 33.2831 29.5872C34.2859 29.3291 35.3082 29.9328 35.5663 30.9357C35.8244 31.9385 35.2207 32.9607 34.2178 33.2189C33.4558 33.415 32.6737 33.5591 31.8755 33.6474V45.2998C31.8755 46.1155 32.568 46.7636 33.377 46.6596C34.286 46.5428 35.1809 46.3794 36.059 46.1718C36.8836 45.977 37.475 45.2533 37.5018 44.4064C37.5504 42.871 38.6235 41.3454 40.3371 40.3511C46.4842 36.7845 50.625 30.1269 50.625 22.5C50.625 11.1091 41.3909 1.875 30 1.875Z" fill="#E4E4E7"/>
<path fill-rule="evenodd" clip-rule="evenodd" d="M22.5329 49.7491C22.7258 48.7317 23.7071 48.0634 24.7244 48.2564C26.4319 48.5803 28.1952 48.7501 30 48.7501C31.8048 48.7501 33.5681 48.5803 35.2756 48.2564C36.293 48.0634 37.2742 48.7317 37.4672 49.7491C37.6601 50.7665 36.9918 51.7477 35.9745 51.9407C34.0378 52.3081 32.0405 52.5001 30 52.5001C27.9596 52.5001 25.9622 52.3081 24.0256 51.9407C23.0082 51.7477 22.3399 50.7665 22.5329 49.7491Z" fill="#E4E4E7"/>
<path fill-rule="evenodd" clip-rule="evenodd" d="M24.3852 55.8599C24.4929 54.83 25.4152 54.0824 26.4451 54.1902C27.6128 54.3123 28.7988 54.375 30 54.375C31.2012 54.375 32.3872 54.3123 33.5549 54.1902C34.5848 54.0824 35.5071 54.83 35.6148 55.8599C35.7226 56.8898 34.975 57.8121 33.9451 57.9198C32.648 58.0555 31.3318 58.125 30 58.125C28.6682 58.125 27.352 58.0555 26.0549 57.9198C25.025 57.8121 24.2774 56.8898 24.3852 55.8599Z" fill="#E4E4E7"/>
</g>
</g>
</svg>
