<svg width="60" height="60" viewBox="0 0 60 60" fill="none" xmlns="http://www.w3.org/2000/svg">
<g id="heroicons-solid/presentation-chart-line">
<path id="Subtract" fill-rule="evenodd" clip-rule="evenodd" d="M5.625 5.625C4.58947 5.625 3.75 6.46447 3.75 7.5C3.75 8.53553 4.58947 9.375 5.625 9.375H7.5V35.625C7.5 39.7671 10.8579 43.125 15 43.125H18.0236L15.0962 51.9071C14.7688 52.8895 15.2997 53.9513 16.2821 54.2788C17.2645 54.6062 18.3263 54.0753 18.6538 53.0929L19.4764 50.625H40.5236L41.3462 53.0929C41.6737 54.0753 42.7355 54.6062 43.7179 54.2788C44.7003 53.9513 45.2312 52.8895 44.9038 51.9071L41.9764 43.125H45C49.1421 43.125 52.5 39.7671 52.5 35.625V9.375H54.375C55.4105 9.375 56.25 8.53553 56.25 7.5C56.25 6.46447 55.4105 5.625 54.375 5.625H5.625ZM21.9764 43.125H38.0236L39.2736 46.875H20.7264L21.9764 43.125ZM42.1889 20.6367C43.0852 20.1182 43.3915 18.9712 42.873 18.0748C42.3545 17.1784 41.2075 16.8721 40.3111 17.3907C36.8943 19.3672 33.8792 21.9593 31.4168 25.0154L27.5758 21.1744C26.8436 20.4421 25.6564 20.4421 24.9242 21.1744L17.4242 28.6744C16.6919 29.4066 16.6919 30.5938 17.4242 31.326C18.1564 32.0583 19.3436 32.0583 20.0758 31.326L26.25 25.1519L30.2932 29.195C30.6856 29.5875 31.2317 29.7859 31.7845 29.7369C32.3374 29.6879 32.8401 29.3965 33.1573 28.9411C35.5174 25.5542 38.6035 22.7107 42.1889 20.6367Z" fill="#E4E4E7"/>
</g>
</svg>
