<svg width="83" height="82" viewBox="0 0 83 82" fill="none" xmlns="http://www.w3.org/2000/svg">
<rect x="1" y="0.5" width="81" height="81" rx="40.5" stroke="url(#paint0_linear_0_1)"/>
<rect x="1" y="0.5" width="81" height="81" rx="40.5" stroke="url(#paint1_linear_0_1)"/>
<rect x="11" y="10.5" width="61" height="61" rx="30.5" stroke="url(#paint2_linear_0_1)"/>
<rect x="11" y="10.5" width="61" height="61" rx="30.5" stroke="url(#paint3_linear_0_1)"/>
<path d="M42 25.0625C35.5452 25.0625 30.3125 30.2952 30.3125 36.75C30.3125 41.0719 32.6589 44.8446 36.1423 46.8656C37.1134 47.4291 37.7215 48.2936 37.749 49.1636C37.7642 49.6435 38.0993 50.0536 38.5666 50.164C39.0644 50.2817 39.5716 50.3743 40.0869 50.4405C40.5454 50.4994 40.9378 50.1322 40.9378 49.67V43.0668C40.4854 43.0168 40.0422 42.9352 39.6104 42.824C39.0421 42.6778 38.7 42.0985 38.8463 41.5302C38.9926 40.9619 39.5718 40.6198 40.1401 40.7661C40.7334 40.9188 41.3565 41.0003 42.0003 41.0003C42.644 41.0003 43.2671 40.9188 43.8604 40.7661C44.4287 40.6198 45.008 40.9619 45.1542 41.5302C45.3005 42.0985 44.9584 42.6778 44.3901 42.824C43.9583 42.9352 43.5151 43.0168 43.0628 43.0668V49.6699C43.0628 50.1321 43.4552 50.4994 43.9136 50.4404C44.4287 50.3742 44.9358 50.2817 45.4334 50.164C45.9007 50.0536 46.2358 49.6435 46.251 49.1636C46.2785 48.2936 46.8866 47.4291 47.8577 46.8656C51.3411 44.8446 53.6875 41.0719 53.6875 36.75C53.6875 30.2952 48.4548 25.0625 42 25.0625Z" fill="#2EC4FF"/>
<path fill-rule="evenodd" clip-rule="evenodd" d="M37.7686 52.1912C37.878 51.6147 38.434 51.2359 39.0105 51.3453C39.9781 51.5288 40.9773 51.625 42 51.625C43.0227 51.625 44.0219 51.5288 44.9895 51.3453C45.566 51.2359 46.122 51.6147 46.2314 52.1912C46.3407 52.7677 45.962 53.3237 45.3855 53.4331C44.2881 53.6413 43.1563 53.75 42 53.75C40.8438 53.75 39.7119 53.6413 38.6145 53.4331C38.038 53.3237 37.6593 52.7677 37.7686 52.1912Z" fill="#2EC4FF"/>
<path fill-rule="evenodd" clip-rule="evenodd" d="M38.8183 55.654C38.8793 55.0703 39.4019 54.6467 39.9855 54.7078C40.6472 54.777 41.3193 54.8125 42 54.8125C42.6807 54.8125 43.3528 54.777 44.0145 54.7078C44.5981 54.6467 45.1207 55.0703 45.1817 55.654C45.2428 56.2376 44.8192 56.7602 44.2355 56.8212C43.5005 56.8981 42.7547 56.9375 42 56.9375C41.2453 56.9375 40.4995 56.8981 39.7645 56.8212C39.1808 56.7602 38.7572 56.2376 38.8183 55.654Z" fill="#2EC4FF"/>
<defs>
<linearGradient id="paint0_linear_0_1" x1="7.25" y1="86.5" x2="86.25" y2="-5.5" gradientUnits="userSpaceOnUse">
<stop stop-color="#2EC4FF"/>
<stop offset="0.323723" stop-color="#2EC4FF" stop-opacity="0"/>
</linearGradient>
<linearGradient id="paint1_linear_0_1" x1="82.25" y1="-10.5" x2="7.25" y2="82" gradientUnits="userSpaceOnUse">
<stop stop-color="#2EC4FF"/>
<stop offset="0.576615" stop-color="#2EC4FF" stop-opacity="0"/>
</linearGradient>
<linearGradient id="paint2_linear_0_1" x1="3.75" y1="13.5" x2="72.25" y2="72" gradientUnits="userSpaceOnUse">
<stop stop-color="#2EC4FF"/>
<stop offset="0.323723" stop-color="#2EC4FF" stop-opacity="0"/>
</linearGradient>
<linearGradient id="paint3_linear_0_1" x1="84.75" y1="86" x2="12.75" y2="35" gradientUnits="userSpaceOnUse">
<stop stop-color="#2EC4FF"/>
<stop offset="0.576615" stop-color="#2EC4FF" stop-opacity="0"/>
</linearGradient>
</defs>
</svg>
