<svg width="27" height="27" viewBox="0 0 27 27" fill="none" xmlns="http://www.w3.org/2000/svg">
<g id="Frame">
<path id="Vector" d="M24 3H4L5.76471 20.8947L14 23L22.2353 20.8947L24 3Z" fill="#E65100"/>
<path id="Vector_2" d="M13.5 4.5V22.4438L19.8 20.6438L21.2063 4.5H13.5Z" fill="#FF6D00"/>
<path id="Vector_3" d="M13.5 14.0625V11.8125H18.3375L17.9437 18.2812L13.5 19.7437V17.3812L15.8063 16.5938L15.975 14.0625H13.5ZM18.5063 9.5625L18.675 7.3125H13.5V9.5625H18.5063Z" fill="white"/>
<path id="Vector_4" d="M13.5 17.3812V19.7437L9.05623 18.2812L8.83123 15.1875H11.0812L11.1937 16.5938L13.5 17.3812ZM10.7437 9.5625H13.5V7.3125H8.38123L8.77498 14.0625H13.5V11.8125H10.9125L10.7437 9.5625Z" fill="#EEEEEE"/>
</g>
</svg>
