<svg width="27" height="27" viewBox="0 0 27 27" fill="none" xmlns="http://www.w3.org/2000/svg">
<g id="Frame" clip-path="url(#clip0_10_7)">
<path id="Vector" d="M13.5 5.40222C9.9 5.40222 7.65 7.20166 6.75 10.8005C8.1 9.0011 9.675 8.32666 11.475 8.7761C12.5021 9.0326 13.2362 9.77791 14.049 10.6025C15.372 11.9452 16.9037 13.5 20.25 13.5C23.85 13.5 26.1 11.7005 27 8.1011C25.65 9.90053 24.075 10.5755 22.275 10.1261C21.2484 9.8696 20.5144 9.12428 19.7016 8.29966C18.378 6.95641 16.8458 5.40222 13.5 5.40222ZM6.75 13.5C3.15 13.5 0.9 15.2994 0 18.8988C1.35 17.0994 2.925 16.4244 4.725 16.8744C5.75156 17.1315 6.48563 17.8762 7.29844 18.7003C8.622 20.0435 10.1543 21.5983 13.5 21.5983C17.1 21.5983 19.35 19.7988 20.25 16.1994C18.9 17.9988 17.325 18.6738 15.525 18.2238C14.4979 17.9673 13.7638 17.222 12.951 16.398C11.628 15.0547 10.0963 13.5 6.75 13.5Z" fill="#00ACC1"/>
</g>
<defs>
<clipPath id="clip0_10_7">
<rect width="27" height="27" fill="white"/>
</clipPath>
</defs>
</svg>
