<svg width="60" height="60" viewBox="0 0 60 60" fill="none" xmlns="http://www.w3.org/2000/svg">
<g id="heroicons-solid/academic-cap">
<g id="Union">
<path d="M29.2495 7.01328C29.7281 6.80417 30.2723 6.80417 30.7509 7.01328C40.0479 11.0753 48.8592 16.041 57.0738 21.799C57.6683 22.2156 57.9688 22.9381 57.8453 23.6534C57.7217 24.3688 57.1963 24.9486 56.4965 25.1417C54.7842 25.6144 53.0867 26.1234 51.4045 26.6659C44.5769 28.8679 38.0044 31.6385 31.7429 34.922L31.7347 34.9263C31.4508 35.0752 31.1675 35.2251 30.8849 35.3762C30.3328 35.6712 29.6698 35.6712 29.1177 35.3762C28.8324 35.2237 28.5464 35.0723 28.2598 34.922C25.1636 33.2984 21.9915 31.8002 18.75 30.4342V29.8749C18.75 29.5466 18.9185 29.2552 19.1793 29.0972C22.9421 26.8176 26.8234 24.7142 30.8118 22.7985C31.7453 22.3501 32.1385 21.2299 31.6901 20.2965C31.2418 19.3631 30.1216 18.9698 29.1882 19.4182C25.09 21.3866 21.1021 23.5478 17.2362 25.8899C16.1028 26.5765 15.3408 27.7004 15.0902 28.9595C12.9529 28.1373 10.7875 27.3716 8.59573 26.6648C6.91366 26.1223 5.21609 25.6143 3.50386 25.1417C2.80406 24.9486 2.27865 24.3688 2.1551 23.6534C2.03155 22.938 2.33206 22.2156 2.92653 21.7989C11.1411 16.041 19.9524 11.0753 29.2495 7.01328Z" fill="white"/>
<path d="M32.6522 38.6836C38.7493 35.4258 45.1552 32.6717 51.8145 30.4765C52.1501 34.0136 52.3644 37.5857 52.4532 41.1888C52.4722 41.9618 52.0147 42.6673 51.3011 42.9652C44.1733 45.9411 37.3934 49.5852 31.0398 53.8193C30.4102 54.2389 29.59 54.2389 28.9603 53.8193C22.6067 49.5852 15.8268 45.9411 8.69899 42.9652C7.9854 42.6673 7.5279 41.9618 7.54695 41.1888C7.63572 37.5855 7.85003 34.013 8.18568 30.4757C10.4882 31.2347 12.7604 32.0604 15 32.9507V36.1267C13.8791 36.7751 13.125 37.987 13.125 39.3751C13.125 40.6134 13.7252 41.7115 14.6505 42.3944C14.4268 43.3459 14.0956 44.2771 13.6569 45.1688C14.7887 45.7029 15.9107 46.2542 17.0227 46.8224C17.6561 45.5343 18.1153 44.1823 18.4004 42.8018C19.7112 42.2174 20.625 40.903 20.625 39.3751C20.625 37.987 19.8709 36.7751 18.75 36.1267V34.5148C21.6785 35.7944 24.5471 37.1858 27.3505 38.6836C29.0069 39.5687 30.9957 39.5687 32.6522 38.6836Z" fill="white"/>
<path d="M11.1556 48.6558C12.2034 47.608 13.0376 46.4278 13.6569 45.1688C14.7887 45.7029 15.9107 46.2542 17.0227 46.8224C16.2264 48.4421 15.1541 49.9606 13.8072 51.3074C13.075 52.0397 11.8878 52.0397 11.1556 51.3074C10.4233 50.5752 10.4233 49.388 11.1556 48.6558Z" fill="white"/>
</g>
</g>
</svg>
