<svg width="34" height="34" viewBox="0 0 34 34" fill="none" xmlns="http://www.w3.org/2000/svg">
<path fill-rule="evenodd" clip-rule="evenodd" d="M20.4671 4.28746C21.0332 4.44186 21.367 5.02596 21.2126 5.59208L14.8376 28.9671C14.6832 29.5332 14.0991 29.867 13.5329 29.7126C12.9668 29.5582 12.633 28.9741 12.7874 28.408L19.1624 5.03296C19.3168 4.46683 19.9009 4.13306 20.4671 4.28746ZM23.6862 8.81122C24.1011 8.39629 24.7739 8.39629 25.1888 8.81122L32.6263 16.2487C33.0412 16.6637 33.0412 17.3364 32.6263 17.7513L25.1888 25.1888C24.7739 25.6038 24.1011 25.6038 23.6862 25.1888C23.2713 24.7739 23.2713 24.1012 23.6862 23.6862L30.3724 17L23.6862 10.3138C23.2713 9.89889 23.2713 9.22615 23.6862 8.81122ZM10.3138 8.81122C10.7287 9.22615 10.7287 9.89889 10.3138 10.3138L3.6276 17L10.3138 23.6862C10.7287 24.1012 10.7287 24.7739 10.3138 25.1888C9.89887 25.6038 9.22613 25.6038 8.8112 25.1888L1.3737 17.7513C0.958767 17.3364 0.958767 16.6637 1.3737 16.2487L8.8112 8.81122C9.22613 8.39629 9.89887 8.39629 10.3138 8.81122Z" fill="#2EC4FF"/>
</svg>
