<svg width="52" height="52" viewBox="0 0 52 52" fill="none" xmlns="http://www.w3.org/2000/svg">
<rect x="1" y="1" width="50" height="50" rx="25" fill="#141414"/>
<rect x="1" y="1" width="50" height="50" rx="25" stroke="#262626" stroke-width="2"/>
<path d="M21.0909 14C17.1814 14 14 17.1814 14 21.0909V30.9091C14 34.8186 17.1814 38 21.0909 38H30.9091C34.8186 38 38 34.8186 38 30.9091V21.0909C38 17.1814 34.8186 14 30.9091 14H21.0909ZM21.0909 15.0909H30.9091C34.229 15.0909 36.9091 17.771 36.9091 21.0909V30.9091C36.9091 34.229 34.229 36.9091 30.9091 36.9091H21.0909C17.771 36.9091 15.0909 34.229 15.0909 30.9091V21.0909C15.0909 17.771 17.771 15.0909 21.0909 15.0909ZM32.5455 18.3636C31.943 18.3636 31.4545 18.8521 31.4545 19.4545C31.4545 20.057 31.943 20.5455 32.5455 20.5455C33.1479 20.5455 33.6364 20.057 33.6364 19.4545C33.6364 18.8521 33.1479 18.3636 32.5455 18.3636ZM26 20C22.6928 20 20 22.6928 20 26C20 29.3072 22.6928 32 26 32C29.3072 32 32 29.3072 32 26C32 22.6928 29.3072 20 26 20ZM26 21.0909C28.7177 21.0909 30.9091 23.2823 30.9091 26C30.9091 28.7177 28.7177 30.9091 26 30.9091C23.2823 30.9091 21.0909 28.7177 21.0909 26C21.0909 23.2823 23.2823 21.0909 26 21.0909Z" fill="#E4E4E7"/>
</svg>
