<svg width="52" height="52" viewBox="0 0 52 52" fill="none" xmlns="http://www.w3.org/2000/svg">
<rect x="1" y="1" width="50" height="50" rx="25" fill="#141414"/>
<rect x="1" y="1" width="50" height="50" rx="25" stroke="#262626" stroke-width="2"/>
<path d="M18.32 15.9199C17.0002 15.9199 15.92 17.0002 15.92 18.3199V33.6799C15.92 34.9997 17.0002 36.0799 18.32 36.0799H33.68C34.9998 36.0799 36.08 34.9997 36.08 33.6799V18.3199C36.08 17.0002 34.9998 15.9199 33.68 15.9199H18.32ZM18.32 16.8799H33.68C34.4809 16.8799 35.12 17.519 35.12 18.3199V33.6799C35.12 34.4808 34.4809 35.1199 33.68 35.1199H18.32C17.5191 35.1199 16.88 34.4808 16.88 33.6799V18.3199C16.88 17.519 17.5191 16.8799 18.32 16.8799ZM20.72 19.2855C20.1943 19.2855 19.7212 19.4427 19.371 19.7374C19.0207 20.0322 18.8056 20.4725 18.8056 20.944C18.8056 21.8402 19.583 22.5389 20.5719 22.608L20.5738 22.609C20.6209 22.625 20.6702 22.6336 20.72 22.6343C21.8111 22.6343 22.6344 21.87 22.6344 20.944C22.6343 20.9355 22.634 20.9271 22.6335 20.9187C22.5846 20.0066 21.7714 19.2855 20.72 19.2855ZM20.72 20.2343C21.3883 20.2343 21.6522 20.5327 21.681 20.9562C21.6751 21.3672 21.4209 21.6855 20.72 21.6855C20.055 21.6855 19.7544 21.345 19.7544 20.944C19.7544 20.7435 19.8276 20.5924 19.9813 20.463C20.135 20.3337 20.3817 20.2343 20.72 20.2343ZM19.28 23.1199C19.1527 23.1199 19.0306 23.1705 18.9406 23.2605C18.8506 23.3505 18.8 23.4726 18.8 23.5999V32.7199C18.8 32.8472 18.8506 32.9693 18.9406 33.0593C19.0306 33.1493 19.1527 33.1999 19.28 33.1999H22.16C22.2873 33.1999 22.4094 33.1493 22.4994 33.0593C22.5894 32.9693 22.64 32.8472 22.64 32.7199V29.9046V23.5999C22.64 23.4726 22.5894 23.3505 22.4994 23.2605C22.4094 23.1705 22.2873 23.1199 22.16 23.1199H19.28ZM23.6 23.1199C23.4727 23.1199 23.3506 23.1705 23.2606 23.2605C23.1706 23.3505 23.12 23.4726 23.12 23.5999V32.7199C23.12 32.8472 23.1706 32.9693 23.2606 33.0593C23.3506 33.1493 23.4727 33.1999 23.6 33.1999H26.48C26.6073 33.1999 26.7294 33.1493 26.8194 33.0593C26.9094 32.9693 26.96 32.8472 26.96 32.7199V27.9199C26.96 27.5217 27.0687 27.1255 27.26 26.8662C27.4513 26.6068 27.6927 26.4511 28.1516 26.4593C28.6247 26.4674 28.8752 26.6295 29.0647 26.884C29.2542 27.1384 29.36 27.5199 29.36 27.9199V32.7199C29.36 32.8472 29.4106 32.9693 29.5006 33.0593C29.5906 33.1493 29.7127 33.1999 29.84 33.1999H32.72C32.8473 33.1999 32.9694 33.1493 33.0594 33.0593C33.1494 32.9693 33.2 32.8472 33.2 32.7199V27.5655C33.2 26.144 32.779 25.018 32.0572 24.2562C31.3354 23.4943 30.3316 23.1199 29.27 23.1199C28.261 23.1199 27.4932 23.4583 26.96 23.8034V23.5999C26.96 23.4726 26.9094 23.3505 26.8194 23.2605C26.7294 23.1705 26.6073 23.1199 26.48 23.1199H23.6ZM19.76 24.0799H21.68V29.9046V32.2399H19.76V24.0799ZM24.08 24.0799H26V24.829C26 24.9296 26.0317 25.0277 26.0905 25.1094C26.1494 25.1911 26.2324 25.2522 26.3278 25.2841C26.4233 25.316 26.5263 25.3171 26.6225 25.2873C26.7186 25.2574 26.8029 25.1981 26.8635 25.1177C26.8635 25.1177 27.6172 24.0799 29.27 24.0799C30.1116 24.0799 30.8333 24.3596 31.3606 24.9162C31.888 25.4728 32.24 26.3303 32.24 27.5655V32.2399H30.32V27.9199C30.32 27.3599 30.1858 26.7809 29.8353 26.3102C29.4848 25.8395 28.8953 25.5118 28.1685 25.4993C27.4379 25.4863 26.8388 25.8209 26.4875 26.2971C26.1362 26.7733 26 27.3582 26 27.9199V32.2399H24.08V24.0799Z" fill="white"/>
</svg>
