<svg width="83" height="82" viewBox="0 0 83 82" fill="none" xmlns="http://www.w3.org/2000/svg">
<rect x="1" y="0.5" width="81" height="81" rx="40.5" stroke="url(#paint0_linear_9_327)"/>
<rect x="1" y="0.5" width="81" height="81" rx="40.5" stroke="url(#paint1_linear_9_327)"/>
<rect x="11" y="10.5" width="61" height="61" rx="30.5" stroke="url(#paint2_linear_9_327)"/>
<rect x="11" y="10.5" width="61" height="61" rx="30.5" stroke="url(#paint3_linear_9_327)"/>
<path d="M40.8737 30.4485C40.8737 29.8516 40.5612 29.3121 40.1999 28.8372C39.829 28.3496 39.6141 27.7713 39.6141 27.1512C39.6141 25.4108 41.3059 24 43.3927 24C45.4795 24 47.1712 25.4108 47.1712 27.1512C47.1712 27.7713 46.9564 28.3496 46.5855 28.8372C46.2241 29.3121 45.9117 29.8516 45.9117 30.4485C45.9117 31.007 46.3781 31.4529 46.9352 31.4196C50.1438 31.228 53.3006 30.8457 56.3945 30.2838C56.735 30.222 57.0859 30.3031 57.3648 30.5081C57.6438 30.7131 57.8261 31.0238 57.8691 31.3675C58.2453 34.3749 58.4586 37.4326 58.4999 40.5314C58.5081 41.1471 58.0086 41.6464 57.3933 41.6466C56.7969 41.6466 56.2578 41.3339 55.7833 40.9723C55.2961 40.6011 54.7182 40.3861 54.0985 40.3861C52.3595 40.3861 50.9498 42.0791 50.9498 44.1675C50.9498 46.2559 52.3595 47.9489 54.0985 47.9489C54.7182 47.9489 55.2961 47.734 55.7833 47.3627C56.2578 47.0011 56.7969 46.6885 57.3933 46.6885C57.9146 46.6885 58.3286 47.1282 58.2909 47.6486C58.0916 50.4024 57.7563 53.1188 57.2916 55.791C57.2004 56.315 56.7903 56.7254 56.2667 56.8166C53.2117 57.3487 50.099 57.7112 46.9386 57.8943C46.3794 57.9267 45.9117 57.479 45.9117 56.9183C45.9117 56.3215 46.2241 55.7819 46.5855 55.3071C46.9564 54.8195 47.1712 54.2412 47.1712 53.6211C47.1712 51.8807 45.4795 50.4699 43.3927 50.4699C41.3059 50.4699 39.6141 51.8807 39.6141 53.6211C39.6141 54.2412 39.829 54.8195 40.1999 55.3071C40.5612 55.7819 40.8737 56.3215 40.8737 56.9183C40.8737 57.526 40.3765 58.0168 39.7695 57.9996C37.1002 57.9238 34.4625 57.7201 31.8625 57.3943C31.5191 57.3513 31.2086 57.1688 31.0037 56.8896C30.7989 56.6105 30.7179 56.2593 30.7797 55.9186C31.2715 53.2061 31.6257 50.4453 31.8347 47.6437C31.8733 47.1263 31.462 46.6885 30.9436 46.6885C30.3471 46.6885 29.808 47.0011 29.3335 47.3627C28.8463 47.734 28.2685 47.9489 27.6488 47.9489C25.9098 47.9489 24.5 46.2559 24.5 44.1675C24.5 42.0791 25.9098 40.3861 27.6488 40.3861C28.2685 40.3861 28.8463 40.6011 29.3335 40.9723C29.808 41.3339 30.3471 41.6466 30.9436 41.6466C31.5588 41.6466 32.0584 41.1474 32.0499 40.5317C32.0123 37.7953 31.8364 35.0926 31.5291 32.4305C31.4849 32.0482 31.6177 31.6667 31.8896 31.3945C32.1616 31.1224 32.5428 30.9895 32.9248 31.0337C35.179 31.2944 37.4622 31.4605 39.7704 31.5281C40.3768 31.5458 40.8737 31.0556 40.8737 30.4485Z" fill="#2EC4FF"/>
<defs>
<linearGradient id="paint0_linear_9_327" x1="7.25" y1="86.5" x2="86.25" y2="-5.5" gradientUnits="userSpaceOnUse">
<stop stop-color="#2EC4FF"/>
<stop offset="0.323723" stop-color="#A685FA" stop-opacity="0"/>
</linearGradient>
<linearGradient id="paint1_linear_9_327" x1="82.25" y1="-10.5" x2="7.25" y2="82" gradientUnits="userSpaceOnUse">
<stop stop-color="#2EC4FF"/>
<stop offset="0.576615" stop-color="#A685FA" stop-opacity="0"/>
</linearGradient>
<linearGradient id="paint2_linear_9_327" x1="3.75" y1="13.5" x2="72.25" y2="72" gradientUnits="userSpaceOnUse">
<stop stop-color="#2EC4FF"/>
<stop offset="0.323723" stop-color="#A685FA" stop-opacity="0"/>
</linearGradient>
<linearGradient id="paint3_linear_9_327" x1="84.75" y1="86" x2="12.75" y2="35" gradientUnits="userSpaceOnUse">
<stop stop-color="#2EC4FF"/>
<stop offset="0.576615" stop-color="#A685FA" stop-opacity="0"/>
</linearGradient>
</defs>
</svg>
