<svg width="60" height="60" viewBox="0 0 60 60" fill="none" xmlns="http://www.w3.org/2000/svg">
<g id="heroicons-solid/scale">
<path id="Union" fill-rule="evenodd" clip-rule="evenodd" d="M30 5.625C31.0355 5.625 31.875 6.46447 31.875 7.5V9.38913C37.0458 9.46714 42.1394 9.86727 47.1364 10.5705C49.702 10.9316 52.2421 11.3726 54.754 11.8909C55.696 12.0852 56.3381 12.9608 56.2404 13.9176C56.1427 14.8744 55.3369 15.6022 54.3751 15.6022H49.581L55.765 40.9135C55.968 41.7447 55.5827 42.6079 54.8283 43.0116C52.4568 44.281 49.7471 45 46.8751 45C44.0031 45 41.2934 44.281 38.9219 43.0116C38.1675 42.6079 37.7822 41.7447 37.9853 40.9135L44.1693 15.6022H31.875V48.8043C35.1062 48.992 38.2108 49.6614 41.1165 50.7428C41.9669 51.0592 42.4686 51.9392 42.3078 52.8323C42.147 53.7253 41.3699 54.375 40.4625 54.375H19.5366C18.6292 54.375 17.8521 53.7253 17.6913 52.8323C17.5305 51.9392 18.0322 51.0592 18.8826 50.7428C21.7886 49.6613 24.8935 48.9918 28.125 48.8043V15.6022H15.831L22.015 40.9135C22.218 41.7447 21.8327 42.6079 21.0783 43.0116C18.7068 44.281 15.9971 45 13.1251 45C10.2531 45 7.54345 44.281 5.17188 43.0116C4.41754 42.6079 4.0322 41.7447 4.23527 40.9135L10.4193 15.6022H5.62511C4.66331 15.6022 3.85749 14.8744 3.7598 13.9176C3.66212 12.9608 4.30426 12.0852 5.24622 11.8909C7.75812 11.3726 10.2982 10.9316 12.8638 10.5705C17.8607 9.86728 22.9542 9.46715 28.125 9.38914V7.5C28.125 6.46447 28.9645 5.625 30 5.625ZM42.1949 39.4835L46.8751 20.3274L51.5553 39.4835H42.1949ZM17.8053 39.4835L13.1251 20.3274L8.44494 39.4835H17.8053Z" fill="white"/>
</g>
</svg>
