<svg width="79" height="75" viewBox="0 0 79 75" fill="none" xmlns="http://www.w3.org/2000/svg">
<rect x="1.125" y="0.5" width="76.75" height="73.5625" rx="36.7812" stroke="url(#paint0_linear_9_311)"/>
<rect x="1.125" y="0.5" width="76.75" height="73.5625" rx="36.7812" stroke="url(#paint1_linear_9_311)"/>
<rect x="11.125" y="10.5" width="56.75" height="53.5625" rx="26.7812" stroke="url(#paint2_linear_9_311)"/>
<rect x="11.125" y="10.5" width="56.75" height="53.5625" rx="26.7812" stroke="url(#paint3_linear_9_311)"/>
<path fill-rule="evenodd" clip-rule="evenodd" d="M34.1875 29.3125C34.1875 26.3785 36.566 24 39.5 24C42.434 24 44.8125 26.3785 44.8125 29.3125C44.8125 32.2465 42.434 34.625 39.5 34.625C36.566 34.625 34.1875 32.2465 34.1875 29.3125Z" fill="#2EC4FF"/>
<path fill-rule="evenodd" clip-rule="evenodd" d="M44.8125 33.5625C44.8125 31.2153 46.7153 29.3125 49.0625 29.3125C51.4097 29.3125 53.3125 31.2153 53.3125 33.5625C53.3125 35.9097 51.4097 37.8125 49.0625 37.8125C46.7153 37.8125 44.8125 35.9097 44.8125 33.5625Z" fill="#2EC4FF"/>
<path fill-rule="evenodd" clip-rule="evenodd" d="M25.6875 33.5625C25.6875 31.2153 27.5903 29.3125 29.9375 29.3125C32.2847 29.3125 34.1875 31.2153 34.1875 33.5625C34.1875 35.9097 32.2847 37.8125 29.9375 37.8125C27.5903 37.8125 25.6875 35.9097 25.6875 33.5625Z" fill="#2EC4FF"/>
<path fill-rule="evenodd" clip-rule="evenodd" d="M31.439 41.1665C33.1361 38.5129 36.1118 36.75 39.5 36.75C42.8886 36.75 45.8646 38.5133 47.5617 41.1675C48.7349 43.0024 49.2425 45.2149 49.0044 47.3721C48.9672 47.7092 48.7712 48.0083 48.4771 48.1771C45.8317 49.695 42.7655 50.5625 39.5 50.5625C36.2345 50.5625 33.1683 49.695 30.5229 48.1771C30.2288 48.0083 30.0328 47.7092 29.9956 47.3721C29.7575 45.2145 30.2653 43.0016 31.439 41.1665Z" fill="#2EC4FF"/>
<path d="M29.6999 39.9427C29.6828 39.9689 29.6659 39.9952 29.649 40.0216C28.2813 42.1601 27.6554 44.707 27.8475 47.2178C26.9861 47.0869 26.1503 46.8765 25.3481 46.5939L25.1852 46.5366C24.8882 46.432 24.6806 46.1622 24.6556 45.8482L24.6419 45.6761C24.6307 45.5353 24.625 45.3932 24.625 45.25C24.625 42.3956 26.8761 40.067 29.6999 39.9427Z" fill="#2EC4FF"/>
<path d="M51.153 47.2177C51.3451 44.7074 50.7195 42.1611 49.3522 40.0228C49.3351 39.996 49.3179 39.9693 49.3006 39.9427C52.1241 40.0673 54.375 42.3958 54.375 45.25C54.375 45.3932 54.3693 45.5353 54.3581 45.6761L54.3444 45.8482C54.3194 46.1622 54.1118 46.432 53.8148 46.5366L53.6519 46.5939C52.8498 46.8764 52.0142 47.0868 51.153 47.2177Z" fill="#2EC4FF"/>
<defs>
<linearGradient id="paint0_linear_9_311" x1="7.02515" y1="78.6543" x2="78.3458" y2="-7.95324" gradientUnits="userSpaceOnUse">
<stop stop-color="#2EC4FF"/>
<stop offset="0.323723" stop-color="#A685FA" stop-opacity="0"/>
</linearGradient>
<linearGradient id="paint1_linear_9_311" x1="78.138" y1="-9.54763" x2="10.5844" y2="77.3301" gradientUnits="userSpaceOnUse">
<stop stop-color="#2EC4FF"/>
<stop offset="0.576615" stop-color="#A685FA" stop-opacity="0"/>
</linearGradient>
<linearGradient id="paint2_linear_9_311" x1="4.3377" y1="13.0801" x2="65.0625" y2="67.9696" gradientUnits="userSpaceOnUse">
<stop stop-color="#2EC4FF"/>
<stop offset="0.323723" stop-color="#A685FA" stop-opacity="0"/>
</linearGradient>
<linearGradient id="paint3_linear_9_311" x1="79.7853" y1="76.8831" x2="15.3111" y2="28.5459" gradientUnits="userSpaceOnUse">
<stop stop-color="#2EC4FF"/>
<stop offset="0.576615" stop-color="#A685FA" stop-opacity="0"/>
</linearGradient>
</defs>
</svg>
