   <svg>
        <symbol id="search" xmlns="http://www.w3.org/2000/svg" width="20" height="20" viewBox="0 0 40 40" fill="none">
            <path fill-rule="evenodd" clip-rule="evenodd" d="M16.9231 3.07692C9.27606 3.07692 3.07692 9.27606 3.07692 16.9231C3.07692 24.5701 9.27606 30.7692 16.9231 30.7692C20.747 30.7692 24.2064 29.2211 26.7138 26.7138C29.2211 24.2064 30.7692 20.747 30.7692 16.9231C30.7692 9.27606 24.5701 3.07692 16.9231 3.07692ZM0 16.9231C0 7.57672 7.57672 0 16.9231 0C26.2694 0 33.8462 7.57672 33.8462 16.9231C33.8462 21.0417 32.3733 24.8186 29.9281 27.7523L39.5494 37.3737C40.1502 37.9745 40.1502 38.9486 39.5494 39.5494C38.9486 40.1502 37.9745 40.1502 37.3737 39.5494L27.7523 29.9281C24.8186 32.3733 21.0417 33.8462 16.9231 33.8462C7.57672 33.8462 0 26.2694 0 16.9231Z" fill="white"/>
        </symbol>
           <symbol  id="arrow" width="20" height="20" viewBox="0 0 24 24" fill="none" xmlns="http://www.w3.org/2000/svg">
<path d="M22.625 22.625L1.375 1.375M1.375 1.375L17.3125 1.375M1.375 1.375V17.3125" stroke="#4D4D4D" stroke-width="2" stroke-linecap="round" stroke-linejoin="round"/>
</symbol>

    </svg>
 