<svg width="22" height="22" viewBox="0 0 22 22" fill="none" xmlns="http://www.w3.org/2000/svg">
<path id="Shape" d="M11.8414 1.30996C11.4478 0.697195 10.5522 0.697195 10.1586 1.30996L7.11958 6.04141C6.98416 6.25225 6.77452 6.40456 6.53216 6.4682L1.09317 7.89639C0.388775 8.08135 0.112013 8.93313 0.573162 9.49681L4.13393 13.8492C4.2926 14.0431 4.37267 14.2896 4.3583 14.5397L4.03585 20.1539C3.99409 20.8809 4.71866 21.4074 5.39725 21.143L10.637 19.1014C10.8704 19.0105 11.1296 19.0105 11.363 19.1014L16.6027 21.143C17.2813 21.4074 18.0059 20.8809 17.9641 20.1539L17.6417 14.5397C17.6273 14.2896 17.7074 14.0431 17.8661 13.8492L21.4268 9.49681C21.888 8.93313 21.6112 8.08135 20.9068 7.89639L15.4678 6.4682C15.2255 6.40456 15.0158 6.25225 14.8804 6.04141L11.8414 1.30996Z" fill="#FFE600"/>
</svg>
