<svg>
  <symbol id="rectangle-group" xmlns="http://www.w3.org/2000/svg" width="36" height="36" viewBox="0 0 36 36" fill="#e4e4e7">
    <path
      d="M2.25 10.6875C2.25 9.1342 3.5092 7.875 5.0625 7.875H14.0625C15.6158 7.875 16.875 9.1342 16.875 10.6875V16.3125C16.875 17.8658 15.6158 19.125 14.0625 19.125H5.0625C3.5092 19.125 2.25 17.8658 2.25 16.3125V10.6875ZM20.25 12.9375C20.25 11.3842 21.5092 10.125 23.0625 10.125H30.9375C32.4908 10.125 33.75 11.3842 33.75 12.9375V25.3125C33.75 26.8658 32.4908 28.125 30.9375 28.125H23.0625C21.5092 28.125 20.25 26.8658 20.25 25.3125V12.9375ZM4.5 24.1875C4.5 22.6342 5.7592 21.375 7.3125 21.375H15.1875C16.7408 21.375 18 22.6342 18 24.1875V27.5625C18 29.1158 16.7408 30.375 15.1875 30.375H7.3125C5.7592 30.375 4.5 29.1158 4.5 27.5625V24.1875Z"
      fill="white" />
  </symbol>
</svg>