<svg width="27" height="27" viewBox="0 0 27 27" fill="none" xmlns="http://www.w3.org/2000/svg">
<g id="Frame" clip-path="url(#clip0_9_586)">
<path id="Vector" d="M13.5001 5.40222C9.90012 5.40222 7.65012 7.20166 6.75012 10.8005C8.10012 9.0011 9.67512 8.32666 11.4751 8.7761C12.5022 9.0326 13.2363 9.77791 14.0491 10.6025C15.3721 11.9452 16.9038 13.5 20.2501 13.5C23.8501 13.5 26.1001 11.7005 27.0001 8.1011C25.6501 9.90053 24.0751 10.5755 22.2751 10.1261C21.2486 9.8696 20.5145 9.12428 19.7017 8.29966C18.3781 6.95641 16.8459 5.40222 13.5001 5.40222ZM6.75012 13.5C3.15012 13.5 0.900122 15.2994 0.00012207 18.8988C1.35012 17.0994 2.92512 16.4244 4.72512 16.8744C5.75168 17.1315 6.48575 17.8762 7.29856 18.7003C8.62212 20.0435 10.1544 21.5983 13.5001 21.5983C17.1001 21.5983 19.3501 19.7988 20.2501 16.1994C18.9001 17.9988 17.3251 18.6738 15.5251 18.2238C14.498 17.9673 13.7639 17.222 12.9511 16.398C11.6281 15.0547 10.0964 13.5 6.75012 13.5Z" fill="#00ACC1"/>
</g>
<defs>
<clipPath id="clip0_9_586">
<rect width="27" height="27" fill="white"/>
</clipPath>
</defs>
</svg>
