<svg width="486" height="558" viewBox="0 0 486 558" fill="none" xmlns="http://www.w3.org/2000/svg">
<mask id="path-1-inside-1_7_12" fill="white">
<path fill-rule="evenodd" clip-rule="evenodd" d="M179.736 390.575C80.4706 286.818 78.6123 127.497 175.586 34.7215C274.851 138.479 276.709 297.8 179.736 390.575Z"/>
</mask>
<path fill-rule="evenodd" clip-rule="evenodd" d="M179.736 390.575C80.4706 286.818 78.6123 127.497 175.586 34.7215C274.851 138.479 276.709 297.8 179.736 390.575Z" fill="#FFB000"/>
<path d="M179.736 390.575L178.291 391.958L179.674 393.403L181.119 392.02L179.736 390.575ZM175.586 34.7215L177.031 33.3389L175.648 31.8938L174.203 33.2764L175.586 34.7215ZM181.181 389.192C82.5898 286.14 80.8835 128.092 176.968 36.1666L174.203 33.2764C76.3411 126.902 78.3514 287.496 178.291 391.958L181.181 389.192ZM174.14 36.1041C272.732 139.157 274.438 297.205 178.354 389.13L181.119 392.02C278.981 298.395 276.97 137.801 177.031 33.3389L174.14 36.1041Z" fill="#FFB000" mask="url(#path-1-inside-1_7_12)"/>
<mask id="path-3-inside-2_7_12" fill="white">
<path fill-rule="evenodd" clip-rule="evenodd" d="M179.855 391.061C220.079 253.216 357.126 171.946 485.958 209.539C445.734 347.385 308.687 428.654 179.855 391.061Z"/>
</mask>
<path fill-rule="evenodd" clip-rule="evenodd" d="M179.855 391.061C220.079 253.216 357.126 171.946 485.958 209.539C445.734 347.385 308.687 428.654 179.855 391.061Z" fill="#F4680E"/>
<path d="M179.855 391.061L177.935 390.501L177.375 392.42L179.295 392.981L179.855 391.061ZM485.958 209.539L487.878 210.1L488.438 208.18L486.518 207.619L485.958 209.539ZM181.775 391.621C221.725 254.712 357.746 174.21 485.398 211.459L486.518 207.619C356.505 169.681 218.432 251.719 177.935 390.501L181.775 391.621ZM484.038 208.979C444.087 345.888 308.067 426.39 180.415 389.141L179.295 392.981C309.307 430.919 447.381 348.881 487.878 210.1L484.038 208.979Z" fill="#F4680E" mask="url(#path-3-inside-2_7_12)"/>
<mask id="path-5-inside-3_7_12" fill="white">
<path fill-rule="evenodd" clip-rule="evenodd" d="M175.585 34.7215C315.075 0.633658 453.98 78.6848 485.839 209.054C346.35 243.142 207.444 165.09 175.585 34.7215Z"/>
</mask>
<path fill-rule="evenodd" clip-rule="evenodd" d="M175.585 34.7215C315.075 0.633658 453.98 78.6848 485.839 209.054C346.35 243.142 207.444 165.09 175.585 34.7215Z" fill="#FA8C07"/>
<path d="M175.585 34.7215L175.111 32.7787L173.168 33.2534L173.643 35.1963L175.585 34.7215ZM485.839 209.054L486.314 210.997L488.257 210.522L487.782 208.579L485.839 209.054ZM176.06 36.6643C314.602 2.80795 452.329 80.3543 483.896 209.528L487.782 208.579C455.631 77.0154 315.547 -1.54063 175.111 32.7787L176.06 36.6643ZM485.364 207.111C346.822 240.967 209.095 163.421 177.528 34.2467L173.643 35.1963C205.794 166.76 345.877 245.316 486.314 210.997L485.364 207.111Z" fill="#FA8C07" mask="url(#path-5-inside-3_7_12)"/>
<mask id="path-7-inside-4_7_12" fill="white">
<path fill-rule="evenodd" clip-rule="evenodd" d="M240.204 147.261C208.925 117.415 185.806 79.2167 175 35.0001C175 35 175 35 175 35C206.657 68.0895 228.407 106.83 240.204 147.261Z"/>
</mask>
<path fill-rule="evenodd" clip-rule="evenodd" d="M240.204 147.261C208.925 117.415 185.806 79.2167 175 35.0001C175 35 175 35 175 35C206.657 68.0895 228.407 106.83 240.204 147.261Z" fill="#FFB000"/>
<path d="M240.204 147.261L238.824 148.708L244.21 153.847L242.124 146.701L240.204 147.261ZM175 35.0001L173.617 33.5549L172.783 34.3531L173.057 35.4748L175 35.0001ZM175 35L176.445 33.6174L175.063 32.1723L173.617 33.5549L175 35ZM241.585 145.814C210.569 116.219 187.653 78.3533 176.943 34.5253L173.057 35.4748C183.958 80.0801 207.281 118.611 238.824 148.708L241.585 145.814ZM176.383 36.4452L176.383 36.4452L173.617 33.5549L173.617 33.5549L176.383 36.4452ZM173.555 36.3826C204.988 69.2378 226.576 107.696 238.285 147.821L242.124 146.701C230.238 105.965 208.326 66.9411 176.445 33.6174L173.555 36.3826Z" fill="#FFB000" mask="url(#path-7-inside-4_7_12)"/>
<path d="M137.512 465.3V484.8C137.512 486.533 138.112 488 139.312 489.2C140.578 490.4 142.078 491 143.812 491H185.812C186.612 491 187.278 490.733 187.812 490.2C188.345 489.667 188.612 489.033 188.612 488.3V468.2H203.112V488.1C203.112 488.833 203.378 489.5 203.912 490.1C204.445 490.7 205.112 491 205.912 491H208.812C209.145 491 209.445 491.167 209.712 491.5C210.045 491.767 210.212 492.067 210.212 492.4V506.6C210.212 506.933 210.045 507.267 209.712 507.6C209.445 507.867 209.145 508 208.812 508H208.212C205.878 508 203.678 507.6 201.612 506.8C199.545 506 197.645 504.667 195.912 502.8C194.112 504.733 192.145 506.1 190.012 506.9C187.878 507.633 185.612 508 183.212 508H145.212C142.145 508 139.245 507.433 136.512 506.3C133.845 505.1 131.512 503.5 129.512 501.5C127.512 499.433 125.912 497.067 124.712 494.4C123.578 491.667 123.012 488.767 123.012 485.7V465.3H137.512ZM150.012 451.8H163.012V465.3H150.012V451.8ZM163.012 451.8H176.012V465.3H163.012V451.8ZM235.555 508C233.289 508 231.055 507.633 228.855 506.9C226.722 506.1 224.789 504.733 223.055 502.8C221.322 504.733 219.422 506.1 217.355 506.9C215.355 507.633 213.189 508 210.855 508H208.855C208.455 508 208.122 507.867 207.855 507.6C207.589 507.267 207.455 506.933 207.455 506.6V492.5C207.455 492.1 207.622 491.767 207.955 491.5C208.222 491.167 208.522 491 208.855 491H213.055C213.855 491 214.522 490.733 215.055 490.2C215.589 489.6 215.855 488.9 215.855 488.1V468.3H230.255V488C230.255 488.933 230.555 489.667 231.155 490.2C231.822 490.733 232.422 491 232.955 491H236.655C237.455 491 238.155 490.767 238.755 490.3C239.422 489.767 239.822 489.067 239.955 488.2L243.955 468.3L258.655 470.7L255.255 487.5C254.989 488.5 255.122 489.333 255.655 490C256.189 490.667 256.922 491 257.855 491H263.455C264.255 491 264.922 490.733 265.455 490.2C265.989 489.6 266.255 488.933 266.255 488.2V465.7H280.655V487.8C280.655 489.933 281.589 491 283.455 491H287.855C288.789 491 289.255 491.467 289.255 492.4V506.6C289.255 507.533 288.789 508 287.855 508H285.855C283.455 508 281.189 507.633 279.055 506.9C276.989 506.1 275.089 504.733 273.355 502.8C271.622 504.667 269.622 506 267.355 506.8C265.089 507.6 262.789 508 260.455 508C259.455 508 258.322 507.933 257.055 507.8C255.855 507.6 254.622 507.3 253.355 506.9C252.155 506.5 250.989 505.967 249.855 505.3C248.789 504.633 247.855 503.8 247.055 502.8C245.322 504.733 243.489 506.1 241.555 506.9C239.689 507.633 237.689 508 235.555 508ZM301.859 479.4L291.559 469.5L323.459 432L333.859 441.6L315.259 463.6H352.159C354.693 463.6 357.059 464.1 359.259 465.1C361.526 466.033 363.493 467.333 365.159 469C366.826 470.667 368.126 472.633 369.059 474.9C370.059 477.1 370.559 479.5 370.559 482.1V489.5C370.559 492.167 370.026 494.633 368.959 496.9C367.893 499.167 366.459 501.133 364.659 502.8C362.926 504.467 360.926 505.767 358.659 506.7C356.393 507.567 354.026 508 351.559 508H287.859C287.526 508 287.226 507.867 286.959 507.6C286.626 507.267 286.459 506.933 286.459 506.6V492.4C286.459 492.067 286.593 491.767 286.859 491.5C287.126 491.167 287.459 491 287.859 491H354.359C354.693 491 355.059 490.867 355.459 490.6C355.926 490.333 356.159 489.867 356.159 489.2V481.7C356.159 481.033 355.926 480.5 355.459 480.1C354.993 479.633 354.459 479.4 353.859 479.4H301.859ZM400.502 506.6C400.502 507.533 400.035 508 399.102 508H397.102C394.435 508 391.902 507.5 389.502 506.5C387.102 505.433 385.035 504.033 383.302 502.3C381.568 500.567 380.168 498.5 379.102 496.1C378.102 493.7 377.602 491.167 377.602 488.5V437.3H392.102V488.2C392.102 489 392.368 489.667 392.902 490.2C393.435 490.733 394.102 491 394.902 491H399.102C399.502 491 399.835 491.167 400.102 491.5C400.368 491.767 400.502 492.1 400.502 492.5V506.6ZM439.09 506.6C439.09 506.933 438.923 507.267 438.59 507.6C438.323 507.867 437.99 508 437.59 508H429.59C427.523 508 425.59 507.633 423.79 506.9C421.99 506.1 420.323 504.733 418.79 502.8C417.056 504.733 415.19 506.1 413.19 506.9C411.256 507.633 409.223 508 407.09 508H399.09C398.756 508 398.456 507.867 398.19 507.6C397.856 507.267 397.69 506.933 397.69 506.6V492.5C397.69 492.1 397.856 491.767 398.19 491.5C398.456 491.167 398.756 491 399.09 491H408.79C409.59 491 410.323 490.767 410.99 490.3C411.656 489.767 412.056 489.067 412.19 488.2L416.19 468.2L430.39 470.8L427.09 487.5C426.89 488.567 427.023 489.433 427.49 490.1C427.956 490.7 428.656 491 429.59 491H437.59C437.99 491 438.323 491.167 438.59 491.5C438.923 491.833 439.09 492.167 439.09 492.5V506.6ZM405.49 520H418.49V533.5H405.49V520ZM418.49 520H431.49V533.5H418.49V520ZM449.766 491C450.566 491 451.233 490.733 451.766 490.2C452.3 489.6 452.566 488.933 452.566 488.2V465.3H466.966V488.1C466.966 490.833 466.433 493.433 465.366 495.9C464.366 498.3 462.966 500.4 461.166 502.2C459.366 504 457.233 505.433 454.766 506.5C452.366 507.5 449.8 508 447.066 508H437.566C437.166 508 436.833 507.867 436.566 507.6C436.3 507.267 436.166 506.933 436.166 506.6V492.6C436.166 492.2 436.3 491.833 436.566 491.5C436.833 491.167 437.166 491 437.566 491H449.766ZM437.766 520H450.766V533.5H437.766V520Z" fill="#E4E4E7"/>
</svg>
