<svg width="668" height="664" viewBox="0 0 668 664" fill="none" xmlns="http://www.w3.org/2000/svg">
<mask id="path-1-inside-1_1_131" fill="white">
<path fill-rule="evenodd" clip-rule="evenodd" d="M277 45.922C338.229 20.56 408.426 49.6362 433.788 110.866C372.558 136.228 302.362 107.151 277 45.922Z"/>
</mask>
<path fill-rule="evenodd" clip-rule="evenodd" d="M277 45.922C338.229 20.56 408.426 49.6362 433.788 110.866C372.558 136.228 302.362 107.151 277 45.922Z" fill="#1447E6"/>
<path d="M277 45.922L276.235 44.0743L274.387 44.8396L275.152 46.6874L277 45.922ZM433.788 110.866L434.553 112.713L436.401 111.948L435.635 110.1L433.788 110.866ZM277.765 47.7698C337.974 22.8304 407 51.422 431.94 111.631L435.635 110.1C409.851 47.8503 338.484 18.2895 276.235 44.0743L277.765 47.7698ZM433.022 109.018C372.813 133.957 303.787 105.366 278.848 45.1566L275.152 46.6874C300.937 108.937 372.303 138.498 434.553 112.713L433.022 109.018Z" fill="#1447E6" mask="url(#path-1-inside-1_1_131)"/>
<mask id="path-3-inside-2_1_131" fill="white">
<path fill-rule="evenodd" clip-rule="evenodd" d="M162 87.8528C208.863 40.9899 284.843 40.9899 331.706 87.8528C284.843 134.716 208.863 134.716 162 87.8528Z"/>
</mask>
<path fill-rule="evenodd" clip-rule="evenodd" d="M162 87.8528C208.863 40.9899 284.843 40.9899 331.706 87.8528C284.843 134.716 208.863 134.716 162 87.8528Z" fill="#2EC4FF"/>
<path d="M162 87.8528L160.586 86.4386L159.172 87.8528L160.586 89.267L162 87.8528ZM331.706 87.8528L333.12 89.267L334.534 87.8528L333.12 86.4386L331.706 87.8528ZM163.414 89.267C209.496 43.1852 284.21 43.1852 330.291 89.267L333.12 86.4386C285.476 38.7946 208.23 38.7946 160.586 86.4386L163.414 89.267ZM330.291 86.4386C284.21 132.52 209.496 132.52 163.414 86.4386L160.586 89.267C208.23 136.911 285.476 136.911 333.12 89.267L330.291 86.4386Z" fill="#2EC4FF" mask="url(#path-3-inside-2_1_131)"/>
<mask id="path-5-inside-3_1_131" fill="white">
<path fill-rule="evenodd" clip-rule="evenodd" d="M82 175.866C107.362 114.636 177.558 85.56 238.788 110.922C213.426 172.151 143.229 201.228 82 175.866Z"/>
</mask>
<path fill-rule="evenodd" clip-rule="evenodd" d="M82 175.866C107.362 114.636 177.558 85.56 238.788 110.922C213.426 172.151 143.229 201.228 82 175.866Z" fill="#1447E6"/>
<path d="M82 175.866L80.1522 175.1L79.3869 176.948L81.2346 177.713L82 175.866ZM238.788 110.922L240.635 111.687L241.401 109.84L239.553 109.074L238.788 110.922ZM83.8478 176.631C108.787 116.422 177.813 87.8304 238.022 112.77L239.553 109.074C177.303 83.2895 105.937 112.85 80.1522 175.1L83.8478 176.631ZM236.94 110.157C212 170.366 142.974 198.957 82.7654 174.018L81.2346 177.713C143.484 203.498 214.851 173.937 240.635 111.687L236.94 110.157Z" fill="#1447E6" mask="url(#path-5-inside-3_1_131)"/>
<mask id="path-7-inside-4_1_131" fill="white">
<path fill-rule="evenodd" clip-rule="evenodd" d="M40 279C40 212.726 93.7258 159 160 159C160 225.274 106.274 279 40 279Z"/>
</mask>
<path fill-rule="evenodd" clip-rule="evenodd" d="M40 279C40 212.726 93.7258 159 160 159C160 225.274 106.274 279 40 279Z" fill="#2EC4FF"/>
<path d="M40 279H38V281H40V279ZM160 159H162V157H160V159ZM42 279C42 213.83 94.8304 161 160 161V157C92.6213 157 38 211.621 38 279H42ZM158 159C158 224.17 105.17 277 40 277V281C107.379 281 162 226.379 162 159H158Z" fill="#2EC4FF" mask="url(#path-7-inside-4_1_131)"/>
<mask id="path-9-inside-5_1_131" fill="white">
<path fill-rule="evenodd" clip-rule="evenodd" d="M45.922 389.788C20.56 328.558 49.6362 258.362 110.866 233C136.228 294.229 107.151 364.426 45.922 389.788Z"/>
</mask>
<path fill-rule="evenodd" clip-rule="evenodd" d="M45.922 389.788C20.56 328.558 49.6362 258.362 110.866 233C136.228 294.229 107.151 364.426 45.922 389.788Z" fill="#1447E6"/>
<path d="M45.922 389.788L44.0742 390.553L44.8396 392.401L46.6874 391.635L45.922 389.788ZM110.866 233L112.713 232.235L111.948 230.387L110.1 231.152L110.866 233ZM47.7698 389.022C22.8304 328.813 51.422 259.787 111.631 234.848L110.1 231.152C47.8503 256.937 18.2895 328.303 44.0742 390.553L47.7698 389.022ZM109.018 233.765C133.957 293.974 105.365 363 45.1566 387.94L46.6874 391.635C108.937 365.851 138.498 294.484 112.713 232.235L109.018 233.765Z" fill="#1447E6" mask="url(#path-9-inside-5_1_131)"/>
<mask id="path-11-inside-6_1_131" fill="white">
<path fill-rule="evenodd" clip-rule="evenodd" d="M91.8528 501.706C44.9899 454.843 44.9899 378.863 91.8528 332C138.716 378.863 138.716 454.843 91.8528 501.706Z"/>
</mask>
<path fill-rule="evenodd" clip-rule="evenodd" d="M91.8528 501.706C44.9899 454.843 44.9899 378.863 91.8528 332C138.716 378.863 138.716 454.843 91.8528 501.706Z" fill="#2EC4FF"/>
<path d="M91.8528 501.706L90.4386 503.12L91.8528 504.534L93.267 503.12L91.8528 501.706ZM91.8528 332L93.267 330.586L91.8528 329.172L90.4386 330.586L91.8528 332ZM93.267 500.291C47.1851 454.21 47.1851 379.496 93.267 333.414L90.4386 330.586C42.7946 378.23 42.7946 455.476 90.4386 503.12L93.267 500.291ZM90.4386 333.414C136.52 379.496 136.52 454.21 90.4386 500.291L93.267 503.12C140.911 455.476 140.911 378.23 93.267 330.586L90.4386 333.414Z" fill="#2EC4FF" mask="url(#path-11-inside-6_1_131)"/>
<mask id="path-13-inside-7_1_131" fill="white">
<path fill-rule="evenodd" clip-rule="evenodd" d="M179.866 581.706C118.636 556.344 89.56 486.147 114.922 424.918C176.151 450.28 205.228 520.476 179.866 581.706Z"/>
</mask>
<path fill-rule="evenodd" clip-rule="evenodd" d="M179.866 581.706C118.636 556.344 89.56 486.147 114.922 424.918C176.151 450.28 205.228 520.476 179.866 581.706Z" fill="#1447E6"/>
<path d="M179.866 581.706L179.1 583.553L180.948 584.319L181.713 582.471L179.866 581.706ZM114.922 424.918L115.687 423.07L113.84 422.305L113.074 424.153L114.922 424.918ZM180.631 579.858C120.422 554.919 91.8305 485.892 116.77 425.683L113.074 424.153C87.2896 486.403 116.85 557.769 179.1 583.553L180.631 579.858ZM114.157 426.766C174.366 451.705 202.957 520.731 178.018 580.94L181.713 582.471C207.498 520.221 177.937 448.855 115.687 423.07L114.157 426.766Z" fill="#1447E6" mask="url(#path-13-inside-7_1_131)"/>
<mask id="path-15-inside-8_1_131" fill="white">
<path fill-rule="evenodd" clip-rule="evenodd" d="M283 623.706C216.726 623.706 163 569.98 163 503.706C229.274 503.706 283 557.431 283 623.706Z"/>
</mask>
<path fill-rule="evenodd" clip-rule="evenodd" d="M283 623.706C216.726 623.706 163 569.98 163 503.706C229.274 503.706 283 557.431 283 623.706Z" fill="#2EC4FF"/>
<path d="M283 623.706V625.706H285V623.706H283ZM163 503.706V501.706H161V503.706H163ZM283 621.706C217.83 621.706 165 568.875 165 503.706H161C161 571.084 215.621 625.706 283 625.706V621.706ZM163 505.706C228.17 505.706 281 558.536 281 623.706H285C285 556.327 230.379 501.706 163 501.706V505.706Z" fill="#2EC4FF" mask="url(#path-15-inside-8_1_131)"/>
<mask id="path-17-inside-9_1_131" fill="white">
<path fill-rule="evenodd" clip-rule="evenodd" d="M393.788 617.784C332.558 643.146 262.362 614.069 237 552.84C298.229 527.478 368.426 556.554 393.788 617.784Z"/>
</mask>
<path fill-rule="evenodd" clip-rule="evenodd" d="M393.788 617.784C332.558 643.146 262.362 614.069 237 552.84C298.229 527.478 368.426 556.554 393.788 617.784Z" fill="#1447E6"/>
<path d="M393.788 617.784L394.553 619.631L396.401 618.866L395.635 617.018L393.788 617.784ZM237 552.84L236.235 550.992L234.387 551.758L235.152 553.605L237 552.84ZM393.022 615.936C332.813 640.875 263.787 612.284 238.848 552.075L235.152 553.605C260.937 615.855 332.303 645.416 394.553 619.631L393.022 615.936ZM237.765 554.688C297.974 529.749 367.001 558.34 391.94 618.549L395.635 617.018C369.851 554.768 298.485 525.208 236.235 550.992L237.765 554.688Z" fill="#1447E6" mask="url(#path-17-inside-9_1_131)"/>
<mask id="path-19-inside-10_1_131" fill="white">
<path fill-rule="evenodd" clip-rule="evenodd" d="M505.706 578.853C458.843 625.716 382.863 625.716 336 578.853C382.863 531.99 458.843 531.99 505.706 578.853Z"/>
</mask>
<path fill-rule="evenodd" clip-rule="evenodd" d="M505.706 578.853C458.843 625.716 382.863 625.716 336 578.853C382.863 531.99 458.843 531.99 505.706 578.853Z" fill="#2EC4FF"/>
<path d="M505.706 578.853L507.12 580.267L508.534 578.853L507.12 577.439L505.706 578.853ZM336 578.853L334.586 577.439L333.172 578.853L334.586 580.267L336 578.853ZM504.292 577.439C458.21 623.52 383.496 623.52 337.414 577.439L334.586 580.267C382.23 627.911 459.476 627.911 507.12 580.267L504.292 577.439ZM337.414 580.267C383.496 534.185 458.21 534.185 504.292 580.267L507.12 577.439C459.476 529.795 382.23 529.795 334.586 577.439L337.414 580.267Z" fill="#2EC4FF" mask="url(#path-19-inside-10_1_131)"/>
<mask id="path-21-inside-11_1_131" fill="white">
<path fill-rule="evenodd" clip-rule="evenodd" d="M585.706 490.84C560.344 552.069 490.148 581.146 428.918 555.784C454.28 494.554 524.476 465.478 585.706 490.84Z"/>
</mask>
<path fill-rule="evenodd" clip-rule="evenodd" d="M585.706 490.84C560.344 552.069 490.148 581.146 428.918 555.784C454.28 494.554 524.476 465.478 585.706 490.84Z" fill="#1447E6"/>
<path d="M585.706 490.84L587.554 491.605L588.319 489.758L586.471 488.992L585.706 490.84ZM428.918 555.784L427.07 555.018L426.305 556.866L428.153 557.631L428.918 555.784ZM583.858 490.075C558.919 550.284 489.892 578.875 429.684 553.936L428.153 557.631C490.403 583.416 561.769 553.855 587.554 491.605L583.858 490.075ZM430.766 556.549C455.705 496.34 524.732 467.749 584.94 492.688L586.471 488.992C524.221 463.208 452.855 492.768 427.07 555.018L430.766 556.549Z" fill="#1447E6" mask="url(#path-21-inside-11_1_131)"/>
<mask id="path-23-inside-12_1_131" fill="white">
<path fill-rule="evenodd" clip-rule="evenodd" d="M627.706 387.706C627.706 453.98 573.98 507.706 507.706 507.706C507.706 441.431 561.432 387.706 627.706 387.706Z"/>
</mask>
<path fill-rule="evenodd" clip-rule="evenodd" d="M627.706 387.706C627.706 453.98 573.98 507.706 507.706 507.706C507.706 441.431 561.432 387.706 627.706 387.706Z" fill="#2EC4FF"/>
<path d="M627.706 387.706H629.706V385.706H627.706V387.706ZM507.706 507.706H505.706V509.706H507.706V507.706ZM625.706 387.706C625.706 452.875 572.875 505.706 507.706 505.706V509.706C575.085 509.706 629.706 455.084 629.706 387.706H625.706ZM509.706 507.706C509.706 442.536 562.536 389.706 627.706 389.706V385.706C560.327 385.706 505.706 440.327 505.706 507.706H509.706Z" fill="#2EC4FF" mask="url(#path-23-inside-12_1_131)"/>
<mask id="path-25-inside-13_1_131" fill="white">
<path fill-rule="evenodd" clip-rule="evenodd" d="M621.784 276.918C647.146 338.147 618.07 408.344 556.84 433.706C531.478 372.476 560.554 302.28 621.784 276.918Z"/>
</mask>
<path fill-rule="evenodd" clip-rule="evenodd" d="M621.784 276.918C647.146 338.147 618.07 408.344 556.84 433.706C531.478 372.476 560.554 302.28 621.784 276.918Z" fill="#1447E6"/>
<path d="M621.784 276.918L623.632 276.153L622.866 274.305L621.018 275.07L621.784 276.918ZM556.84 433.706L554.993 434.471L555.758 436.319L557.606 435.553L556.84 433.706ZM619.936 277.683C644.875 337.892 616.284 406.919 556.075 431.858L557.606 435.553C619.855 409.769 649.416 338.403 623.632 276.153L619.936 277.683ZM558.688 432.94C533.749 372.731 562.34 303.705 622.549 278.766L621.018 275.07C558.769 300.855 529.208 372.221 554.993 434.471L558.688 432.94Z" fill="#1447E6" mask="url(#path-25-inside-13_1_131)"/>
<mask id="path-27-inside-14_1_131" fill="white">
<path fill-rule="evenodd" clip-rule="evenodd" d="M575.853 165C622.716 211.863 622.716 287.843 575.853 334.706C528.99 287.843 528.99 211.863 575.853 165Z"/>
</mask>
<path fill-rule="evenodd" clip-rule="evenodd" d="M575.853 165C622.716 211.863 622.716 287.843 575.853 334.706C528.99 287.843 528.99 211.863 575.853 165Z" fill="#2EC4FF"/>
<path d="M575.853 165L577.267 163.586L575.853 162.172L574.439 163.586L575.853 165ZM575.853 334.706L574.439 336.12L575.853 337.534L577.267 336.12L575.853 334.706ZM574.439 166.414C620.521 212.496 620.521 287.21 574.439 333.291L577.267 336.12C624.911 288.476 624.911 211.23 577.267 163.586L574.439 166.414ZM577.267 333.291C531.185 287.21 531.185 212.496 577.267 166.414L574.439 163.586C526.795 211.23 526.795 288.476 574.439 336.12L577.267 333.291Z" fill="#2EC4FF" mask="url(#path-27-inside-14_1_131)"/>
<mask id="path-29-inside-15_1_131" fill="white">
<path fill-rule="evenodd" clip-rule="evenodd" d="M487.84 85C549.07 110.362 578.146 180.558 552.784 241.788C491.554 216.426 462.478 146.229 487.84 85Z"/>
</mask>
<path fill-rule="evenodd" clip-rule="evenodd" d="M487.84 85C549.07 110.362 578.146 180.558 552.784 241.788C491.554 216.426 462.478 146.229 487.84 85Z" fill="#1447E6"/>
<path d="M487.84 85L488.606 83.1522L486.758 82.3869L485.992 84.2346L487.84 85ZM552.784 241.788L552.018 243.635L553.866 244.401L554.631 242.553L552.784 241.788ZM487.075 86.8478C547.284 111.787 575.875 180.813 550.936 241.022L554.631 242.553C580.416 180.303 550.855 108.937 488.606 83.1522L487.075 86.8478ZM553.549 239.94C493.34 215 464.749 145.974 489.688 85.7654L485.992 84.2346C460.208 146.484 489.769 217.851 552.018 243.635L553.549 239.94Z" fill="#1447E6" mask="url(#path-29-inside-15_1_131)"/>
<mask id="path-31-inside-16_1_131" fill="white">
<path fill-rule="evenodd" clip-rule="evenodd" d="M384.706 43C450.98 43 504.706 96.7258 504.706 163C438.432 163 384.706 109.274 384.706 43Z"/>
</mask>
<path fill-rule="evenodd" clip-rule="evenodd" d="M384.706 43C450.98 43 504.706 96.7258 504.706 163C438.432 163 384.706 109.274 384.706 43Z" fill="#2EC4FF"/>
<path d="M384.706 43V41H382.706V43H384.706ZM504.706 163V165H506.706V163H504.706ZM384.706 45C449.875 45 502.706 97.8304 502.706 163H506.706C506.706 95.6213 452.085 41 384.706 41V45ZM504.706 161C439.536 161 386.706 108.17 386.706 43H382.706C382.706 110.379 437.327 165 504.706 165V161Z" fill="#2EC4FF" mask="url(#path-31-inside-16_1_131)"/>
<mask id="path-33-inside-17_1_131" fill="white">
<path fill-rule="evenodd" clip-rule="evenodd" d="M410.641 117.581C396.459 99.8116 387.218 77.9241 385 54C406.072 66.7762 423.411 86.1353 433.565 110.648C426.026 113.77 418.351 116.068 410.641 117.581Z"/>
</mask>
<path fill-rule="evenodd" clip-rule="evenodd" d="M410.641 117.581C396.459 99.8116 387.218 77.9241 385 54C406.072 66.7762 423.411 86.1353 433.565 110.648C426.026 113.77 418.351 116.068 410.641 117.581Z" fill="#1447E6"/>
<path d="M410.641 117.581L409.078 118.829L409.836 119.778L411.027 119.544L410.641 117.581ZM385 54L386.037 52.2898L382.642 50.2315L383.009 54.1846L385 54ZM433.565 110.648L434.33 112.495L436.178 111.73L435.412 109.882L433.565 110.648ZM412.205 116.334C398.258 98.8591 389.172 77.3386 386.991 53.8154L383.009 54.1846C385.264 78.5095 394.66 100.764 409.078 118.829L412.205 116.334ZM383.963 55.7102C404.684 68.2732 421.732 87.307 431.717 111.413L435.412 109.882C425.091 84.9637 407.461 65.2791 386.037 52.2898L383.963 55.7102ZM432.799 108.8C425.384 111.871 417.837 114.13 410.256 115.619L411.027 119.544C418.866 118.005 426.668 115.669 434.33 112.495L432.799 108.8Z" fill="#1447E6" mask="url(#path-33-inside-17_1_131)"/>
<path d="M449.2 395.8C449.2 416.6 442.133 434.733 428 450.2C414.133 465.4 392.267 473 362.4 473H225.6V427.4H253.6V258.6H225.6V213H360.8C384.533 213 403.6 218.6 418 229.8C432.667 240.733 440 255.4 440 273.8C440 287.4 435.867 299.267 427.6 309.4C419.333 319.533 407.733 325.8 392.8 328.2V329.8C411.467 332.467 425.467 339.8 434.8 351.8C444.4 363.8 449.2 378.467 449.2 395.8ZM382.4 287.8C382.4 276.067 378.8 268.333 371.6 264.6C364.667 260.6 356.4 258.6 346.8 258.6H307.2V319.4H342.8C358 319.4 368.4 316.333 374 310.2C379.6 304.067 382.4 296.6 382.4 287.8ZM391.6 393.8C391.6 371.933 378.4 361 352 361H307.2V427.4H348.4C377.2 427.4 391.6 416.2 391.6 393.8Z" fill="#E4E4E7"/>
</svg>
