<svg width="75" height="74" viewBox="0 0 75 74" fill="none" xmlns="http://www.w3.org/2000/svg">
<rect x="-0.5" y="0.5" width="73" height="73" rx="36.5" transform="matrix(-1 0 0 1 73.5 0)" fill="#141414"/>
<rect x="-0.5" y="0.5" width="73" height="73" rx="36.5" transform="matrix(-1 0 0 1 73.5 0)" stroke="#2EC4FF"/>
<path d="M37.9253 23.9741C37.6541 23.8556 37.3457 23.8556 37.0745 23.9741C31.8062 26.276 26.8131 29.0898 22.1582 32.3527C21.8213 32.5888 21.651 32.9982 21.721 33.4036C21.791 33.8089 22.0888 34.1375 22.4853 34.2469C23.4556 34.5148 24.4176 34.8032 25.3708 35.1106C29.2398 36.3584 32.9642 37.9284 36.5124 39.7891L36.517 39.7915C36.6779 39.8759 36.8384 39.9609 36.9985 40.0464C37.3114 40.2136 37.6871 40.2136 38 40.0464C38.1616 39.96 38.3237 39.8742 38.4861 39.7891C40.2406 38.869 42.0382 38.0201 43.875 37.246V36.9291C43.875 36.743 43.7795 36.5779 43.6317 36.4883C41.4995 35.1966 39.3 34.0046 37.04 32.9191C36.511 32.665 36.2882 32.0302 36.5423 31.5013C36.7963 30.9723 37.4311 30.7495 37.96 31.0036C40.2823 32.119 42.5421 33.3437 44.7328 34.6709C45.3751 35.06 45.8069 35.6968 45.9489 36.4103C47.16 35.9444 48.3871 35.5105 49.6291 35.11C50.5823 34.8026 51.5442 34.5147 52.5145 34.2469C52.911 34.1375 53.2088 33.8089 53.2788 33.4035C53.3488 32.9982 53.1785 32.5888 52.8416 32.3527C48.1867 29.0898 43.1936 26.276 37.9253 23.9741Z" fill="#2EC4FF"/>
<path d="M35.9971 41.9207C32.542 40.0746 28.912 38.5139 25.1384 37.27C24.9483 39.2743 24.8268 41.2985 24.7765 43.3402C24.7657 43.7783 25.025 44.1781 25.4294 44.3469C29.4685 46.0332 33.3104 48.0982 36.9108 50.4975C37.2676 50.7353 37.7324 50.7353 38.0892 50.4975C41.6895 48.0982 45.5315 46.0332 49.5706 44.3469C49.9749 44.1781 50.2342 43.7783 50.2234 43.3402C50.1731 41.2984 50.0517 39.274 49.8614 37.2695C48.5567 37.6996 47.2691 38.1675 46 38.672V40.4718C46.6352 40.8392 47.0625 41.5259 47.0625 42.3125C47.0625 43.0142 46.7224 43.6364 46.198 44.0234C46.3248 44.5626 46.5125 45.0903 46.7611 45.5956C46.1198 45.8983 45.4839 46.2107 44.8538 46.5326C44.4949 45.8027 44.2347 45.0366 44.0731 44.2543C43.3303 43.9232 42.8125 43.1783 42.8125 42.3125C42.8125 41.5259 43.2398 40.8392 43.875 40.4718V39.5583C42.2155 40.2834 40.59 41.0719 39.0014 41.9207C38.0628 42.4222 36.9357 42.4222 35.9971 41.9207Z" fill="#2EC4FF"/>
<path d="M48.1785 47.5716C47.5847 46.9778 47.1121 46.309 46.7611 45.5956C46.1198 45.8983 45.4839 46.2107 44.8538 46.5326C45.3051 47.4504 45.9127 48.3109 46.6759 49.0742C47.0908 49.4891 47.7636 49.4891 48.1785 49.0742C48.5934 48.6592 48.5934 47.9865 48.1785 47.5716Z" fill="#2EC4FF"/>
</svg>
