<svg width="60" height="60" viewBox="0 0 60 60" fill="none" xmlns="http://www.w3.org/2000/svg">
<g id="heroicons-solid/trophy">
<path id="Union" fill-rule="evenodd" clip-rule="evenodd" d="M12.9153 6.55341V8.69649C10.3281 9.06661 7.76789 9.52058 5.23742 10.0556C4.25361 10.2636 3.60904 11.2106 3.77642 12.2021C5.05255 19.7614 11.3504 25.6121 19.1229 26.2012C21.087 27.8052 23.4214 28.9767 25.979 29.5674C25.7319 32.4879 24.7413 35.194 23.197 37.5H21.3522C18.7634 37.5 16.6647 39.5987 16.6647 42.1875V48.75H14.7894C11.6828 48.75 9.16443 51.2684 9.16443 54.375C9.16443 55.4105 10.0039 56.25 11.0394 56.25H48.5394C49.575 56.25 50.4144 55.4105 50.4144 54.375C50.4144 51.2684 47.896 48.75 44.7894 48.75H42.9147V42.1875C42.9147 39.5987 40.816 37.5 38.2272 37.5H36.3811C34.8374 35.1943 33.8474 32.4882 33.6004 29.5677C36.1585 28.9771 38.4933 27.8054 40.4578 26.2012C48.2303 25.6121 54.5281 19.7614 55.8042 12.2021C55.9716 11.2106 55.3271 10.2636 54.3433 10.0556C51.8128 9.52058 49.2525 9.06661 46.6653 8.69649V6.55341C46.6653 5.60759 45.9609 4.80985 45.0223 4.69282C40.0317 4.07048 34.948 3.75 29.7903 3.75C24.6327 3.75 19.549 4.07048 14.5583 4.69282C13.6198 4.80985 12.9153 5.60759 12.9153 6.55341ZM12.9153 13.125C12.9153 16.1155 13.694 18.9249 15.0585 21.3606C11.6656 19.8418 9.0344 16.9244 7.90007 13.3422C9.55926 13.0206 11.2313 12.7349 12.9153 12.4859V13.125ZM46.6653 13.125V12.4859C48.3494 12.7349 50.0214 13.0206 51.6806 13.3422C50.5463 16.9244 47.915 19.8418 44.5222 21.3606C45.8866 18.9249 46.6653 16.1155 46.6653 13.125Z" fill="#E4E4E7"/>
</g>
</svg>
