<svg width="24" height="25" viewBox="0 0 24 25" fill="none" xmlns="http://www.w3.org/2000/svg">
<g id="Icon">
<g id="Vector">
<path d="M20.25 6.5C20.25 5.25736 19.2426 4.25 18 4.25H15.75C14.5074 4.25 13.5 5.25736 13.5 6.5V8.75C13.5 9.99264 14.5074 11 15.75 11H18C19.2426 11 20.25 9.99264 20.25 8.75V6.5Z" stroke="#E4E4E7" stroke-opacity="0.5" stroke-width="1.5" stroke-linecap="round" stroke-linejoin="round"/>
<path d="M20.25 16.25C20.25 15.0074 19.2426 14 18 14H15.75C14.5074 14 13.5 15.0074 13.5 16.25V18.5C13.5 19.7426 14.5074 20.75 15.75 20.75H18C19.2426 20.75 20.25 19.7426 20.25 18.5V16.25Z" stroke="#E4E4E7" stroke-opacity="0.5" stroke-width="1.5" stroke-linecap="round" stroke-linejoin="round"/>
<path d="M10.5 6.5C10.5 5.25736 9.49264 4.25 8.25 4.25H6C4.75736 4.25 3.75 5.25736 3.75 6.5V8.75C3.75 9.99264 4.75736 11 6 11H8.25C9.49264 11 10.5 9.99264 10.5 8.75V6.5Z" stroke="#E4E4E7" stroke-opacity="0.5" stroke-width="1.5" stroke-linecap="round" stroke-linejoin="round"/>
<path d="M10.5 16.25C10.5 15.0074 9.49264 14 8.25 14H6C4.75736 14 3.75 15.0074 3.75 16.25V18.5C3.75 19.7426 4.75736 20.75 6 20.75H8.25C9.49264 20.75 10.5 19.7426 10.5 18.5V16.25Z" stroke="#E4E4E7" stroke-opacity="0.5" stroke-width="1.5" stroke-linecap="round" stroke-linejoin="round"/>
</g>
</g>
</svg>
