<svg width="74" height="74" viewBox="0 0 74 74" fill="none" xmlns="http://www.w3.org/2000/svg">
<rect x="-0.5" y="0.5" width="73" height="73" rx="36.5" transform="matrix(-1 0 0 1 73 0)" fill="#141414"/>
<rect x="-0.5" y="0.5" width="73" height="73" rx="36.5" transform="matrix(-1 0 0 1 73 0)" stroke="#2EC4FF"/>
<path fill-rule="evenodd" clip-rule="evenodd" d="M42.3125 29.5625C42.3125 26.6285 39.934 24.25 37 24.25C34.066 24.25 31.6875 26.6285 31.6875 29.5625C31.6875 32.4965 34.066 34.875 37 34.875C39.934 34.875 42.3125 32.4965 42.3125 29.5625Z" fill="#2EC4FF"/>
<path fill-rule="evenodd" clip-rule="evenodd" d="M31.6875 33.8125C31.6875 31.4653 29.7847 29.5625 27.4375 29.5625C25.0903 29.5625 23.1875 31.4653 23.1875 33.8125C23.1875 36.1597 25.0903 38.0625 27.4375 38.0625C29.7847 38.0625 31.6875 36.1597 31.6875 33.8125Z" fill="#2EC4FF"/>
<path fill-rule="evenodd" clip-rule="evenodd" d="M50.8125 33.8125C50.8125 31.4653 48.9097 29.5625 46.5625 29.5625C44.2153 29.5625 42.3125 31.4653 42.3125 33.8125C42.3125 36.1597 44.2153 38.0625 46.5625 38.0625C48.9097 38.0625 50.8125 36.1597 50.8125 33.8125Z" fill="#2EC4FF"/>
<path fill-rule="evenodd" clip-rule="evenodd" d="M45.061 41.4165C43.3639 38.7629 40.3882 37 37 37C33.6114 37 30.6354 38.7633 28.9383 41.4175C27.7651 43.2524 27.2575 45.4649 27.4956 47.6221C27.5328 47.9592 27.7288 48.2583 28.0229 48.4271C30.6683 49.945 33.7345 50.8125 37 50.8125C40.2655 50.8125 43.3317 49.945 45.9771 48.4271C46.2712 48.2583 46.4672 47.9592 46.5044 47.6221C46.7425 45.4645 46.2347 43.2516 45.061 41.4165Z" fill="#2EC4FF"/>
<path d="M46.8001 40.1927C46.8172 40.2189 46.8341 40.2452 46.851 40.2716C48.2187 42.4101 48.8446 44.957 48.6525 47.4678C49.5139 47.3369 50.3497 47.1265 51.1519 46.8439L51.3148 46.7866C51.6118 46.682 51.8194 46.4122 51.8444 46.0982L51.8581 45.9261C51.8693 45.7853 51.875 45.6432 51.875 45.5C51.875 42.6456 49.6239 40.317 46.8001 40.1927Z" fill="#2EC4FF"/>
<path d="M25.347 47.4677C25.1549 44.9574 25.7805 42.4111 27.1478 40.2728C27.1649 40.246 27.1821 40.2193 27.1994 40.1927C24.3759 40.3173 22.125 42.6458 22.125 45.5C22.125 45.6432 22.1307 45.7853 22.1419 45.9261L22.1556 46.0982C22.1806 46.4122 22.3882 46.682 22.6852 46.7866L22.8481 46.8439C23.6502 47.1264 24.4858 47.3368 25.347 47.4677Z" fill="#2EC4FF"/>
</svg>
