<svg width="60" height="60" viewBox="0 0 60 60" fill="none" xmlns="http://www.w3.org/2000/svg">
<g id="heroicons-solid/map">
<path id="Subtract" fill-rule="evenodd" clip-rule="evenodd" d="M20.4037 6.4519C21.7233 5.79207 23.2767 5.79207 24.5963 6.4519L37.0807 12.6941C37.3447 12.8261 37.6553 12.8261 37.9193 12.6941L47.5912 7.85815C50.7079 6.29979 54.375 8.56618 54.375 12.0508V43.2618C54.375 45.0373 53.3719 46.6604 51.7838 47.4545L39.5963 53.5482C38.2767 54.208 36.7233 54.208 35.4037 53.5482L22.9193 47.306C22.6553 47.174 22.3447 47.174 22.0807 47.306L12.4088 52.142C9.29209 53.7003 5.625 51.4339 5.625 47.9493V16.7383C5.625 14.9628 6.62814 13.3397 8.21619 12.5457L20.4037 6.4519ZM22.5 15C23.5355 15 24.375 15.8395 24.375 16.875V37.5C24.375 38.5356 23.5355 39.375 22.5 39.375C21.4645 39.375 20.625 38.5356 20.625 37.5V16.875C20.625 15.8395 21.4645 15 22.5 15ZM39.375 22.5C39.375 21.4645 38.5355 20.625 37.5 20.625C36.4645 20.625 35.625 21.4645 35.625 22.5V43.125C35.625 44.1606 36.4645 45 37.5 45C38.5355 45 39.375 44.1606 39.375 43.125V22.5Z" fill="#E4E4E7"/>
</g>
</svg>
