<svg width="60" height="60" viewBox="0 0 60 60" fill="none" xmlns="http://www.w3.org/2000/svg">
<g id="heroicons-solid/sparkles">
<g id="Vector">
<path fill-rule="evenodd" clip-rule="evenodd" d="M22.5 11.25C23.3372 11.25 24.0729 11.805 24.3029 12.6099L26.3358 19.7254C27.2257 22.8398 29.6602 25.2743 32.7746 26.1642L39.8901 28.1971C40.695 28.4271 41.25 29.1628 41.25 30C41.25 30.8372 40.695 31.5729 39.8901 31.8029L32.7746 33.8359C29.6602 34.7257 27.2257 37.1602 26.3358 40.2746L24.3029 47.3901C24.0729 48.195 23.3372 48.75 22.5 48.75C21.6628 48.75 20.9271 48.195 20.6971 47.3901L18.6641 40.2746C17.7743 37.1602 15.3398 34.7257 12.2254 33.8358L5.1099 31.8029C4.30496 31.5729 3.75 30.8372 3.75 30C3.75 29.1628 4.30496 28.4271 5.1099 28.1971L12.2254 26.1642C15.3398 25.2743 17.7743 22.8398 18.6642 19.7254L20.6971 12.6099C20.9271 11.805 21.6628 11.25 22.5 11.25Z" fill="#E4E4E7"/>
<path fill-rule="evenodd" clip-rule="evenodd" d="M45 3.75C45.8604 3.75 46.6103 4.33556 46.819 5.17025L47.4662 7.7589C48.054 10.1101 49.8899 11.946 52.2411 12.5338L54.8298 13.181C55.6644 13.3897 56.25 14.1396 56.25 15C56.25 15.8604 55.6644 16.6103 54.8298 16.819L52.2411 17.4662C49.8899 18.054 48.054 19.8899 47.4662 22.2411L46.819 24.8298C46.6103 25.6644 45.8604 26.25 45 26.25C44.1396 26.25 43.3897 25.6644 43.181 24.8298L42.5338 22.2411C41.946 19.8899 40.1101 18.054 37.7589 17.4662L35.1702 16.819C34.3356 16.6103 33.75 15.8604 33.75 15C33.75 14.1396 34.3356 13.3897 35.1702 13.181L37.7589 12.5338C40.1101 11.946 41.946 10.1101 42.5338 7.7589L43.181 5.17025C43.3897 4.33556 44.1396 3.75 45 3.75Z" fill="#E4E4E7"/>
<path fill-rule="evenodd" clip-rule="evenodd" d="M41.25 37.5C42.0571 37.5 42.7736 38.0164 43.0288 38.7821L44.0144 41.7389C44.3876 42.8587 45.2663 43.7374 46.3861 44.1106L49.3429 45.0962C50.1086 45.3514 50.625 46.0679 50.625 46.875C50.625 47.6821 50.1086 48.3986 49.3429 48.6538L46.3861 49.6394C45.2663 50.0126 44.3876 50.8913 44.0144 52.0111L43.0288 54.9679C42.7736 55.7336 42.0571 56.25 41.25 56.25C40.4429 56.25 39.7264 55.7336 39.4712 54.9679L38.4856 52.0111C38.1124 50.8913 37.2337 50.0126 36.1139 49.6394L33.1571 48.6538C32.3914 48.3986 31.875 47.6821 31.875 46.875C31.875 46.0679 32.3914 45.3514 33.1571 45.0962L36.1139 44.1106C37.2337 43.7374 38.1124 42.8587 38.4856 41.7389L39.4712 38.7821C39.7264 38.0164 40.4429 37.5 41.25 37.5Z" fill="#E4E4E7"/>
</g>
</g>
</svg>
