<svg width="74" height="74" viewBox="0 0 74 74" fill="none" xmlns="http://www.w3.org/2000/svg">
<rect x="-0.5" y="0.5" width="73" height="73" rx="36.5" transform="matrix(-1 0 0 1 73 0)" fill="#141414"/>
<rect x="-0.5" y="0.5" width="73" height="73" rx="36.5" transform="matrix(-1 0 0 1 73 0)" stroke="#2EC4FF"/>
<path fill-rule="evenodd" clip-rule="evenodd" d="M38.7168 24.5485C38.0817 23.0214 35.9184 23.0214 35.2832 24.5485L32.3337 31.6399L24.6779 32.2537C23.0293 32.3859 22.3608 34.4433 23.6169 35.5193L29.4498 40.5158L27.6678 47.9865C27.284 49.5953 29.0341 50.8668 30.4456 50.0047L37 46.0013L43.5544 50.0047C44.9659 50.8668 46.716 49.5953 46.3323 47.9865L44.5502 40.5158L50.3831 35.5193C51.6392 34.4433 50.9707 32.3859 49.3221 32.2537L41.6663 31.6399L38.7168 24.5485Z" fill="#2EC4FF"/>
</svg>
