<svg width="100" height="50" viewBox="0 0 100 50" fill="none" xmlns="http://www.w3.org/2000/svg">
<rect x="1" y="1" width="98" height="48" rx="24" fill="#141414" stroke="#262626" stroke-width="2"/>
<path d="M54.208 18.976H56.17V31H54.208V25.852H49.348V31H47.386V18.976H49.348V24.16H54.208V18.976ZM66.6799 18.976V20.65H63.3319V31H61.3699V20.65H57.7339V18.976H66.6799ZM76.1662 18.976H78.0922V31H76.1302V21.586L73.7722 26.014H72.6922L70.3162 21.64V31H68.3542V18.976H70.2802L73.2322 23.71L76.1662 18.976ZM81.0456 31V18.976H83.0076V29.308H89.0556V31H81.0456Z" fill="#E4E4E7"/>
<path d="M34 14H14L15.7647 31.8947L24 34L32.2353 31.8947L34 14Z" fill="#E65100"/>
<path d="M23.5 15.5V33.4438L29.8 31.6438L31.2063 15.5H23.5Z" fill="#FF6D00"/>
<path d="M23.5 25.0625V22.8125H28.3375L27.9437 29.2812L23.5 30.7437V28.3812L25.8063 27.5938L25.975 25.0625H23.5ZM28.5063 20.5625L28.675 18.3125H23.5V20.5625H28.5063Z" fill="white"/>
<path d="M23.5 28.3812V30.7437L19.0562 29.2812L18.8312 26.1875H21.0812L21.1937 27.5938L23.5 28.3812ZM20.7437 20.5625H23.5V18.3125H18.3812L18.775 25.0625H23.5V22.8125H20.9125L20.7437 20.5625Z" fill="#EEEEEE"/>
</svg>
