<svg width="27" height="17" viewBox="0 0 27 17" fill="none" xmlns="http://www.w3.org/2000/svg">
<path d="M13.5 0.402222C9.9 0.402222 7.65 2.20166 6.75 5.80053C8.1 4.0011 9.675 3.32666 11.475 3.7761C12.5021 4.0326 13.2362 4.77791 14.049 5.60253C15.372 6.94522 16.9037 8.49997 20.25 8.49997C23.85 8.49997 26.1 6.70053 27 3.1011C25.65 4.90053 24.075 5.57553 22.275 5.1261C21.2484 4.8696 20.5144 4.12428 19.7016 3.29966C18.378 1.95641 16.8458 0.402222 13.5 0.402222ZM6.75 8.49997C3.15 8.49997 0.9 10.2994 0 13.8988C1.35 12.0994 2.925 11.4244 4.725 11.8744C5.75156 12.1315 6.48563 12.8762 7.29844 13.7003C8.622 15.0435 10.1543 16.5983 13.5 16.5983C17.1 16.5983 19.35 14.7988 20.25 11.1994C18.9 12.9988 17.325 13.6738 15.525 13.2238C14.4979 12.9673 13.7638 12.222 12.951 11.398C11.628 10.0547 10.0963 8.49997 6.75 8.49997Z" fill="#00ACC1"/>
</svg>
